<?xml version="1.0" standalone="no"?>
<!DOCTYPE svg PUBLIC "-//W3C//DTD SVG 20010904//EN"
 "http://www.w3.org/TR/2001/REC-SVG-20010904/DTD/svg10.dtd">
<svg version="1.0" xmlns="http://www.w3.org/2000/svg"
 width="512.000000pt" height="512.000000pt" viewBox="0 0 512.000000 512.000000"
 preserveAspectRatio="xMidYMid meet">

<g transform="translate(0.000000,512.000000) scale(0.100000,-0.100000)"
fill="#ffffff" stroke="none">
<path d="M2480 5104 c-45 -20 -87 -59 -111 -106 -15 -30 -19 -59 -19 -147 0
-107 -1 -111 -22 -115 -13 -2 -69 -12 -125 -21 -449 -73 -858 -284 -1187 -611
-328 -327 -554 -772 -616 -1209 -20 -140 -4 -125 -131 -125 -88 0 -117 -4
-147 -19 -162 -83 -162 -299 0 -382 30 -15 59 -19 147 -19 107 0 111 -1 115
-22 2 -13 12 -69 21 -125 131 -811 727 -1492 1512 -1732 107 -32 256 -65 343
-76 96 -11 90 -2 90 -126 0 -121 12 -159 67 -211 106 -101 280 -63 337 74 11
26 16 70 16 142 0 101 1 106 23 110 12 3 69 12 127 21 909 144 1652 888 1795
1800 9 55 18 110 21 123 4 21 9 22 112 22 83 0 116 5 147 19 164 76 166 298 3
382 -30 15 -59 19 -147 19 -107 0 -111 1 -115 23 -3 12 -12 67 -21 122 -82
525 -370 1015 -795 1354 -288 230 -622 381 -975 441 -71 12 -140 24 -152 26
-22 4 -23 8 -23 112 0 83 -5 116 -19 147 -48 103 -170 153 -271 109z m517
-840 c411 -102 802 -383 1036 -744 138 -213 246 -501 269 -715 l3 -30 -112 -5
c-104 -5 -114 -7 -154 -35 -64 -45 -91 -104 -87 -186 4 -77 30 -123 92 -167
36 -24 50 -27 150 -32 l111 -5 -3 -30 c-17 -158 -88 -380 -178 -555 -210 -407
-575 -724 -999 -866 -96 -32 -249 -68 -320 -76 l-30 -3 -5 111 c-5 100 -8 114
-32 150 -15 21 -44 50 -65 64 -31 21 -48 25 -114 25 -70 0 -81 -3 -120 -30
-68 -48 -89 -99 -89 -217 l0 -98 -32 0 c-18 0 -75 9 -127 20 -592 125 -1098
574 -1295 1151 -33 97 -70 251 -78 324 l-3 30 111 5 c100 5 114 8 150 32 21
15 50 44 64 65 21 31 25 48 25 113 0 67 -3 81 -27 116 -51 73 -87 88 -212 94
l-111 5 3 30 c23 216 131 502 270 715 248 382 661 667 1103 760 52 11 108 20
126 20 l31 0 4 -108 c3 -99 5 -112 30 -148 15 -21 44 -50 65 -64 31 -21 48
-25 113 -25 65 0 82 4 113 25 21 14 50 43 65 64 24 35 27 49 30 140 2 56 5
106 7 112 4 13 99 -1 222 -32z"/>
<path d="M2421 3185 c-110 -24 -226 -89 -311 -175 -250 -250 -252 -649 -5
-895 122 -121 256 -183 419 -192 292 -16 560 170 649 452 31 99 31 271 0 370
-101 318 -428 510 -752 440z m253 -445 c20 -14 49 -43 64 -64 24 -35 27 -49
27 -116 0 -67 -3 -81 -27 -116 -15 -21 -44 -50 -65 -64 -31 -21 -48 -25 -113
-25 -65 0 -82 4 -113 25 -81 55 -118 161 -88 253 14 41 72 104 115 123 50 23
155 14 200 -16z"/>
</g>
</svg>
