<?xml version="1.0" standalone="no"?>
<!DOCTYPE svg PUBLIC "-//W3C//DTD SVG 20010904//EN"
 "http://www.w3.org/TR/2001/REC-SVG-20010904/DTD/svg10.dtd">
<svg version="1.0" xmlns="http://www.w3.org/2000/svg"
 width="512.000000pt" height="512.000000pt" viewBox="0 0 512.000000 512.000000"
 preserveAspectRatio="xMidYMid meet">

<g transform="translate(0.000000,512.000000) scale(0.100000,-0.100000)"
fill="#ffffff" stroke="none">
<path d="M1133 4620 c-203 -53 -354 -203 -420 -415 -17 -56 -18 -113 -18 -915
0 -644 3 -878 13 -950 69 -504 272 -930 610 -1282 294 -304 582 -472 942 -549
152 -33 448 -33 600 0 357 76 647 244 935 542 337 348 538 760 612 1254 16
108 18 203 18 980 0 951 3 900 -65 1035 -66 130 -198 245 -338 292 l-67 23
-1375 2 c-1318 2 -1378 1 -1447 -17z m820 -905 c88 -23 170 -69 240 -135 73
-68 97 -110 97 -170 0 -74 -45 -130 -121 -150 -58 -16 -106 1 -159 56 -67 68
-111 88 -195 88 -83 0 -117 -15 -191 -85 -89 -83 -177 -87 -247 -10 -81 90
-47 199 97 308 105 79 201 111 336 112 47 1 112 -6 143 -14z m1548 -17 c130
-48 256 -161 280 -250 13 -50 -2 -101 -44 -146 -66 -69 -155 -63 -241 17 -74
70 -108 85 -191 85 -84 0 -117 -15 -195 -89 -72 -68 -118 -78 -188 -43 -84 41
-116 130 -76 213 40 84 193 195 317 230 82 23 254 14 338 -17z m-4 -1004 c15
-11 39 -36 51 -55 23 -34 24 -37 19 -249 -4 -235 -14 -293 -77 -443 -66 -158
-215 -340 -359 -437 -408 -274 -937 -224 -1285 123 -132 132 -217 279 -268
465 -17 62 -22 115 -26 280 -2 111 -1 213 2 226 9 35 55 86 91 102 24 11 197
13 927 11 892 -2 897 -2 925 -23z"/>
<path d="M1870 2327 c0 -244 157 -490 384 -601 105 -51 184 -69 306 -69 122 0
201 18 306 69 227 111 384 357 384 601 l0 73 -690 0 -690 0 0 -73z"/>
</g>
</svg>
