<?xml version="1.0" standalone="no"?>
<!DOCTYPE svg PUBLIC "-//W3C//DTD SVG 20010904//EN"
 "http://www.w3.org/TR/2001/REC-SVG-20010904/DTD/svg10.dtd">
<svg version="1.0" xmlns="http://www.w3.org/2000/svg"
 width="512.000000pt" height="512.000000pt" viewBox="0 0 512.000000 512.000000"
 preserveAspectRatio="xMidYMid meet">

<g transform="translate(0.000000,512.000000) scale(0.100000,-0.100000)"
fill="#ffffff" stroke="none">
<path d="M3445 4724 c-340 -22 -676 -78 -894 -151 -164 -55 -192 -86 -199
-218 l-4 -82 124 0 c139 -1 183 -13 217 -60 12 -16 70 -131 129 -257 64 -138
115 -233 127 -240 11 -6 36 -23 57 -39 103 -78 174 -76 297 7 61 42 115 47
171 18 39 -20 80 -89 80 -133 0 -45 -42 -107 -105 -154 -73 -55 -142 -82 -244
-96 -42 -6 -77 -11 -77 -12 -2 -2 317 -681 321 -686 2 -2 44 5 92 15 245 50
523 -1 719 -133 140 -94 204 -167 204 -234 -1 -42 -37 -108 -72 -129 -35 -21
-100 -26 -141 -11 -13 5 -50 32 -81 59 -147 129 -377 191 -556 151 -72 -16
-69 -11 -54 -76 58 -244 58 -616 0 -866 -9 -38 -16 -74 -16 -82 0 -8 32 -21
83 -35 105 -28 166 -23 313 25 644 215 1099 779 1173 1457 7 61 11 390 11 875
0 737 -1 780 -19 819 -25 55 -61 78 -183 118 -184 60 -433 108 -708 136 -107
11 -656 21 -765 14z m776 -1022 c15 -9 46 -30 69 -47 38 -26 52 -30 110 -30
58 0 72 4 110 30 88 61 95 65 140 65 115 0 190 -129 131 -226 -72 -117 -282
-198 -453 -174 -121 17 -275 106 -313 181 -35 67 -8 159 57 199 41 25 113 26
149 2z"/>
<path d="M2290 3959 c-599 -69 -1488 -456 -2017 -877 -211 -168 -272 -241
-273 -322 0 -24 92 -231 326 -730 379 -809 424 -891 581 -1062 276 -300 605
-480 1003 -549 219 -38 566 -20 684 35 85 39 214 160 340 321 369 467 464
1118 247 1675 -45 115 -669 1442 -689 1463 -41 46 -96 58 -202 46z m223 -986
c125 -35 175 -155 100 -243 -49 -59 -90 -69 -192 -49 -100 20 -192 -26 -232
-116 -10 -22 -32 -53 -48 -69 -42 -40 -129 -48 -179 -17 -79 50 -92 129 -37
238 59 118 186 223 315 259 66 18 203 17 273 -3z m-1101 -546 c45 -20 61 -34
77 -66 47 -92 4 -193 -94 -220 -23 -6 -54 -5 -97 4 -114 24 -192 -11 -246
-113 -36 -68 -70 -97 -124 -107 -81 -15 -161 45 -174 130 -6 41 -2 55 31 122
64 129 185 228 326 268 84 23 230 15 301 -18z m1249 -470 c80 -53 87 -134 22
-269 -145 -302 -443 -508 -778 -537 -153 -13 -329 12 -428 61 -71 35 -101 119
-69 191 38 86 109 111 218 77 201 -63 424 -21 599 113 79 60 129 124 190 244
59 115 91 143 165 143 32 0 58 -7 81 -23z"/>
</g>
</svg>
