<?xml version="1.0" encoding="utf-8"?>
<svg viewBox="20.488 74.333 468.7396 377.613" xmlns="http://www.w3.org/2000/svg">
  <g id="OBJECTS">
    <g>
      <ellipse style="fill:#DBE6F7;" cx="248.639" cy="424.635" rx="228.151" ry="27.311"/>
    </g>
    <g>
      <path style="fill:#DBE6F7;" d="M192.509,96.473c0,1.078-0.44,2.062-1.155,2.773c-0.707,0.716-1.69,1.156-2.769,1.156h-83.983 c-2.157,0-3.924-1.767-3.924-3.929c0-1.079,0.44-2.062,1.155-2.773c0.707-0.716,1.69-1.156,2.769-1.156h3.969 c1.568-3.643,5.188-6.189,9.402-6.189c2.836,0,5.401,1.155,7.259,3.018c2.474-4.196,7.037-7.014,12.262-7.014 c1.437,0,2.819,0.217,4.124,0.612c2.732-5.138,8.134-8.637,14.36-8.637c7.477,0,13.766,5.048,15.665,11.917 c1.377-0.689,2.932-1.083,4.581-1.083c4.663,0,8.596,3.113,9.833,7.377h2.529C190.742,92.545,192.509,94.312,192.509,96.473z"/>
      <path style="fill:#DBE6F7;" d="M456.566,121.573c0,1.079-0.439,2.062-1.155,2.773c-0.707,0.716-1.69,1.156-2.769,1.156H368.66 c-2.157,0-3.924-1.767-3.924-3.929c0-1.079,0.439-2.062,1.155-2.773c0.707-0.716,1.69-1.156,2.769-1.156h3.969 c1.568-3.643,5.188-6.19,9.402-6.19c2.836,0,5.401,1.155,7.259,3.018c2.474-4.196,7.037-7.014,12.262-7.014 c1.436,0,2.819,0.217,4.124,0.612c2.732-5.138,8.134-8.637,14.36-8.637c7.477,0,13.766,5.048,15.665,11.917 c1.377-0.689,2.932-1.083,4.581-1.083c4.663,0,8.596,3.113,9.833,7.377h2.529C454.799,117.645,456.566,119.412,456.566,121.573z"/>
      <path style="fill:#DBE6F7;" d="M360.682,96.473c0,1.079-0.44,2.062-1.155,2.773c-0.707,0.716-1.69,1.156-2.769,1.156h-83.983 c-2.157,0-3.924-1.767-3.924-3.929c0-1.078,0.44-2.062,1.155-2.773c0.707-0.716,1.69-1.156,2.769-1.156h3.97 c1.568-3.643,5.188-6.19,9.402-6.19c2.837,0,5.401,1.155,7.259,3.018c2.474-4.196,7.037-7.014,12.262-7.014 c1.436,0,2.818,0.217,4.123,0.612c2.732-5.138,8.134-8.637,14.36-8.637c7.477,0,13.766,5.048,15.665,11.918 c1.377-0.689,2.932-1.083,4.581-1.083c4.663,0,8.596,3.113,9.833,7.377h2.529C358.915,92.545,360.682,94.312,360.682,96.473z"/>
    </g>
    <g>
      <g>
        <g>
          <path style="fill:#DBE6F7;" d="M96.646,178.638c-0.107,0.135-0.217,0.261-0.331,0.373c-3.25,3.22-8.883-9.109-3.677-21.447 c5.206-12.338,0.917-28.638-6.065-29.273c-6.981-0.635-0.912,10.209-9.911,8.545c-8.999-1.664-10.385-25.637-21.999-24.314 c-10.164,1.156-3.65,18.912,1.399,26.393c4.764,7.062,3.35,14.243-1.999,12.673c-5.347-1.568-10.692,5.855-2.731,17.383 c7.961,11.528,18.743,23.002,13.554,24.325c-5.189,1.326-15.984-10.007-20.582,3.405c-2.055,5.994,11.005,26.739,39.993,28.381 l12.349-13.375V178.638z"/>
          <g>
            <path style="fill:#BBD4F2;" d="M93.249,211.706c-12.237-32.479-32.806-82.241-33.056-82.846 c-0.158-0.381,0.022-0.82,0.405-0.979c0.383-0.158,0.82,0.025,0.979,0.407c0.251,0.61,21.047,50.914,33.273,83.417H93.249z"/>
          </g>
          <g>
            <g>
              <path style="fill:#BBD4F2;" d="M75.011,164.136c-0.123-0.011-0.244-0.053-0.353-0.127c-0.342-0.233-0.43-0.699-0.198-1.041 c0.065-0.095,6.466-9.537,8.366-16.346c0.111-0.399,0.525-0.632,0.923-0.52c0.398,0.111,0.632,0.524,0.52,0.923 c-1.967,7.048-8.302,16.393-8.571,16.788C75.54,164.045,75.273,164.16,75.011,164.136z"/>
            </g>
          </g>
          <g>
            <path style="fill:#BBD4F2;" d="M77.765,172.126c-0.015-0.001-0.03-0.003-0.045-0.005c-0.459-0.069-11.315-1.745-18.672-5.773 c-0.363-0.199-0.496-0.654-0.297-1.017c0.199-0.363,0.654-0.496,1.017-0.297c7.121,3.899,18.067,5.59,18.177,5.606 c0.409,0.062,0.69,0.444,0.628,0.853C78.513,171.886,78.157,172.161,77.765,172.126z"/>
          </g>
          <g>
            <g>
              <path style="fill:#BBD4F2;" d="M96.646,195.161c-3.158,3.792-6.535,6.713-6.592,6.762c-0.314,0.27-0.35,0.742-0.081,1.056 c0.132,0.154,0.313,0.242,0.5,0.259c0.195,0.018,0.396-0.04,0.556-0.177c0.21-0.18,2.829-2.445,5.617-5.586V195.161z"/>
            </g>
          </g>
          <g>
            <g>
              <path style="fill:#BBD4F2;" d="M81.134,209.689c-4.268-0.389-8.965-1.206-12.83-2.851c-0.381-0.162-0.558-0.602-0.396-0.983 c0.162-0.381,0.602-0.558,0.983-0.396c9.222,3.925,23.986,2.932,24.134,2.921c0.411-0.03,0.771,0.282,0.8,0.694 c0.029,0.413-0.282,0.771-0.694,0.8C92.762,209.902,87.415,210.261,81.134,209.689z"/>
            </g>
          </g>
        </g>
      </g>
      <g>
        <g>
          <path style="fill:#DBE6F7;" d="M414.744,353.33c0.107,0.135,0.217,0.26,0.331,0.373c3.25,3.22,8.883-9.109,3.677-21.447 c-5.206-12.338-0.917-28.638,6.065-29.273c6.981-0.635,0.912,10.209,9.911,8.545c8.999-1.664,10.386-25.637,21.999-24.314 c10.164,1.156,3.65,18.912-1.399,26.393c-4.764,7.062-3.35,14.243,1.999,12.673c5.347-1.568,10.692,5.855,2.731,17.383 c-7.961,11.528-18.743,23.002-13.554,24.325c5.189,1.326,15.984-10.006,20.582,3.405c2.056,5.994-2.385,11.142-7.924,15.006 h-44.418V353.33z"/>
          <g>
            <path style="fill:#BBD4F2;" d="M418.142,386.398c12.237-32.479,32.806-82.24,33.056-82.846c0.158-0.381-0.022-0.82-0.405-0.979 c-0.383-0.158-0.82,0.025-0.979,0.408c-0.251,0.609-21.047,50.914-33.273,83.417H418.142z"/>
          </g>
          <g>
            <path style="fill:#BBD4F2;" d="M436.379,338.828c0.123-0.011,0.244-0.053,0.353-0.127c0.342-0.233,0.43-0.699,0.198-1.041 c-0.065-0.094-6.466-9.537-8.366-16.346c-0.111-0.399-0.526-0.632-0.923-0.52c-0.398,0.111-0.632,0.524-0.521,0.923 c1.967,7.048,8.302,16.393,8.571,16.787C435.851,338.737,436.117,338.852,436.379,338.828z"/>
          </g>
          <g>
            <path style="fill:#BBD4F2;" d="M433.625,346.818c0.015-0.001,0.03-0.003,0.045-0.005c0.459-0.069,11.315-1.745,18.672-5.773 c0.363-0.198,0.496-0.654,0.298-1.017c-0.199-0.363-0.654-0.496-1.017-0.297c-7.121,3.899-18.067,5.59-18.177,5.606 c-0.409,0.062-0.69,0.444-0.628,0.853C432.877,346.578,433.234,346.853,433.625,346.818z"/>
          </g>
          <g>
            <g>
              <path style="fill:#BBD4F2;" d="M414.744,369.853c3.158,3.792,6.535,6.713,6.592,6.762c0.314,0.27,0.35,0.743,0.081,1.057 c-0.132,0.154-0.313,0.241-0.5,0.259c-0.195,0.018-0.396-0.04-0.556-0.177c-0.21-0.18-2.829-2.445-5.617-5.586V369.853z"/>
            </g>
          </g>
          <g>
            <g>
              <path style="fill:#BBD4F2;" d="M430.256,384.381c4.268-0.388,8.965-1.206,12.83-2.851c0.381-0.162,0.558-0.602,0.396-0.983 c-0.162-0.381-0.602-0.558-0.983-0.396c-9.223,3.925-23.986,2.932-24.134,2.921c-0.412-0.03-0.771,0.282-0.8,0.694 c-0.029,0.413,0.281,0.771,0.694,0.8C418.629,384.594,423.975,384.953,430.256,384.381z"/>
            </g>
          </g>
        </g>
      </g>
      <path style="fill:#DBE6F7;" d="M461.73,192.099c4.156-16.768,11.182-31.879,17.812-25.105c6.637,6.78-5.945,32.554-23.317,46.249 l-4.795,6.072c12.486-10.202,31.952-15.606,36.79-9.173c4.807,6.393-8.477,8.814-20.979,9.002 c-9.517,0.143-15.715,2.417-18.742,3.882l-22.649,28.678c19.819-16.099,50.553-24.598,58.208-14.418 c7.628,10.144-13.451,13.985-33.289,14.283c-14.991,0.225-24.798,3.785-29.639,6.111l-4.516,5.718 c-1.114-0.628-2.225-1.261-3.331-1.902l26.946-34.118c0.352-3.643,0.305-8.824-1.148-15.359 c-2.715-12.206-3.438-25.689,3.895-22.494c6.364,2.773,6.685,18.168,2.145,31.659l9.319-11.799 C456.698,205.243,459.936,199.336,461.73,192.099z"/>
      <path style="fill:#DBE6F7;" d="M254.912,114.038c0.401-17.271-2.402-33.698-10.581-28.907c-8.187,4.795-2.828,32.971,10.33,50.754 l3.029,7.119c-9.363-13.127-26.722-23.462-33.081-18.527c-6.32,4.903,5.86,10.733,17.873,14.203 c9.144,2.641,14.525,6.466,17.06,8.676l14.307,33.626c-14.886-20.745-42.302-37.03-52.365-29.222 c-10.028,7.78,9.298,17.031,28.359,22.537c14.404,4.161,22.929,10.175,26.988,13.693l2.853,6.705 c1.24-0.312,2.478-0.632,3.714-0.959l-17.022-40.005c0.619-3.608,2.027-8.594,5.147-14.516c5.83-11.062,10.075-23.88,2.159-22.727 c-6.869,1.001-11.229,15.77-10.397,29.98l-5.887-13.835C256.309,128.042,254.739,121.492,254.912,114.038z"/>
      <path style="fill:#DBE6F7;" d="M51.629,305.615c-4.156-16.768-11.182-31.879-17.812-25.105c-6.637,6.78,5.944,32.554,23.317,46.25 l4.795,6.072c-12.486-10.202-31.952-15.606-36.79-9.173c-4.807,6.393,8.477,8.814,20.979,9.002 c9.517,0.143,15.715,2.418,18.742,3.883l22.649,28.678c-19.819-16.099-50.553-24.598-58.208-14.418 c-7.628,10.144,13.451,13.985,33.289,14.283c14.991,0.225,24.798,3.785,29.639,6.111l4.516,5.718 c1.114-0.628,2.225-1.261,3.331-1.902l-26.946-34.118c-0.352-3.644-0.306-8.824,1.148-15.359 c2.715-12.205,3.438-25.689-3.895-22.494c-6.364,2.773-6.685,18.168-2.145,31.659l-9.319-11.799 C56.66,318.759,53.423,312.852,51.629,305.615z"/>
    </g>
    <g>
      <g>
        <g>
          <path style="fill:#3B3E7D;" d="M427.015,191.015v188.873c0,7.786-6.311,14.097-14.1,14.097H91.033 c-7.788,0-14.1-6.311-14.1-14.097V191.015c0-7.788,6.311-14.1,14.1-14.1h321.882 C420.703,176.915,427.015,183.226,427.015,191.015z"/>
        </g>
        <g>
          <path style="fill:#18285D;" d="M427.015,285.448v94.438c0,7.787-6.312,14.098-14.099,14.098H91.032 c-7.787,0-14.098-6.312-14.098-14.098v-94.438H427.015z"/>
        </g>
        <path style="fill:#FFFFFF;" d="M411.464,200.614v169.672c0,4.992-4.047,9.041-9.038,9.041h-300.9 c-2.668,0-5.068-1.157-6.722-3.003c-1.444-1.595-2.319-3.717-2.319-6.039V200.614c0-4.992,4.049-9.041,9.041-9.041h300.9 c1.669,0,3.23,0.453,4.573,1.244C409.669,194.387,411.464,197.294,411.464,200.614z"/>
        <g>
          <path style="fill:#FFFFFF;" d="M411.464,200.614v169.672c0,4.992-4.047,9.041-9.038,9.041h-300.9 c-2.668,0-5.068-1.157-6.722-3.003c-1.444-1.595-2.319-3.717-2.319-6.039V200.614c0-4.992,4.049-9.041,9.041-9.041h300.9 c1.669,0,3.23,0.453,4.573,1.244C409.669,194.387,411.464,197.294,411.464,200.614z"/>
          <g>
            <g>
              <path style="fill:#DBE6F7;" d="M102.672,263.857L102.672,263.857c0,1.353,1.096,2.449,2.449,2.449h51.942 c1.353,0,2.449-1.096,2.449-2.449l0,0c0-1.353-1.096-2.449-2.449-2.449h-51.942 C103.769,261.408,102.672,262.505,102.672,263.857z"/>
              <path style="fill:#DBE6F7;" d="M102.672,276.356L102.672,276.356c0,1.353,1.096,2.449,2.449,2.449h51.942 c1.353,0,2.449-1.096,2.449-2.449l0,0c0-1.353-1.096-2.449-2.449-2.449h-51.942 C103.769,273.907,102.672,275.003,102.672,276.356z"/>
              <path style="fill:#DBE6F7;" d="M102.672,288.519L102.672,288.519c0,1.167,1.082,2.114,2.416,2.114h51.239 c1.334,0,2.416-0.946,2.416-2.114l0,0c0-1.167-1.082-2.114-2.416-2.114h-51.239 C103.754,286.405,102.672,287.352,102.672,288.519z"/>
            </g>
            <g>
              <path style="fill:#DBE6F7;" d="M102.672,307.2L102.672,307.2c0,1.353,1.096,2.449,2.449,2.449h51.942 c1.353,0,2.449-1.096,2.449-2.449l0,0c0-1.353-1.096-2.449-2.449-2.449h-51.942 C103.769,304.751,102.672,305.848,102.672,307.2z"/>
              <path style="fill:#DBE6F7;" d="M102.672,319.699L102.672,319.699c0,1.353,1.096,2.449,2.449,2.449h51.942 c1.353,0,2.449-1.096,2.449-2.449l0,0c0-1.353-1.096-2.449-2.449-2.449h-51.942 C103.769,317.25,102.672,318.346,102.672,319.699z"/>
              <path style="fill:#DBE6F7;" d="M102.672,332.197L102.672,332.197c0,1.353,1.096,2.449,2.449,2.449h51.942 c1.353,0,2.449-1.096,2.449-2.449l0,0c0-1.353-1.096-2.449-2.449-2.449h-51.942 C103.769,329.748,102.672,330.845,102.672,332.197z"/>
            </g>
          </g>
          <g>
            <g>
              <path style="fill:#DBE6F7;" d="M344.08,263.857L344.08,263.857c0,1.353,1.096,2.449,2.449,2.449h51.942 c1.353,0,2.449-1.096,2.449-2.449l0,0c0-1.353-1.096-2.449-2.449-2.449h-51.942 C345.177,261.408,344.08,262.505,344.08,263.857z"/>
              <path style="fill:#DBE6F7;" d="M344.08,276.356L344.08,276.356c0,1.353,1.096,2.449,2.449,2.449h51.942 c1.353,0,2.449-1.096,2.449-2.449l0,0c0-1.353-1.096-2.449-2.449-2.449h-51.942 C345.177,273.907,344.08,275.003,344.08,276.356z"/>
              <path style="fill:#DBE6F7;" d="M344.08,288.519L344.08,288.519c0,1.167,1.082,2.114,2.416,2.114h51.239 c1.334,0,2.416-0.946,2.416-2.114l0,0c0-1.167-1.082-2.114-2.416-2.114h-51.239 C345.162,286.405,344.08,287.352,344.08,288.519z"/>
            </g>
            <g>
              <path style="fill:#DBE6F7;" d="M344.08,307.2L344.08,307.2c0,1.353,1.096,2.449,2.449,2.449h51.942 c1.353,0,2.449-1.096,2.449-2.449l0,0c0-1.353-1.096-2.449-2.449-2.449h-51.942C345.177,304.751,344.08,305.848,344.08,307.2z "/>
              <path style="fill:#DBE6F7;" d="M344.08,319.699L344.08,319.699c0,1.353,1.096,2.449,2.449,2.449h51.942 c1.353,0,2.449-1.096,2.449-2.449l0,0c0-1.353-1.096-2.449-2.449-2.449h-51.942C345.177,317.25,344.08,318.346,344.08,319.699 z"/>
              <path style="fill:#DBE6F7;" d="M344.08,332.197L344.08,332.197c0,1.353,1.096,2.449,2.449,2.449h51.942 c1.353,0,2.449-1.096,2.449-2.449l0,0c0-1.353-1.096-2.449-2.449-2.449h-51.942 C345.177,329.748,344.08,330.845,344.08,332.197z"/>
            </g>
          </g>
          <path style="fill:#DBE6F7;" d="M411.464,200.614v9.435H92.485v-9.435c0-4.992,4.049-9.041,9.041-9.041h300.9 c1.669,0,3.23,0.453,4.573,1.244C409.669,194.387,411.464,197.294,411.464,200.614z"/>
          <g>
            <path style="fill:#021147;" d="M409.832,195.442H94.116c1.63-2.339,4.341-3.868,7.411-3.868h300.898 C405.494,191.574,408.206,193.103,409.832,195.442z"/>
          </g>
          <g>
            <path style="fill:#707FFF;" d="M378.362,201.775c0,1.745-1.415,3.16-3.16,3.16c-1.746,0-3.16-1.415-3.16-3.16 c0-1.745,1.415-3.161,3.16-3.161C376.947,198.614,378.362,200.029,378.362,201.775z"/>
            <g>
              <path style="fill:#3B3E7D;" d="M388.604,201.775c0,1.745-1.415,3.16-3.16,3.16c-1.746,0-3.161-1.415-3.161-3.16 c0-1.745,1.415-3.161,3.161-3.161C387.189,198.614,388.604,200.029,388.604,201.775z"/>
            </g>
            <path style="fill:#4F60D9;" d="M398.352,201.775c0,1.745-1.415,3.16-3.16,3.16c-1.745,0-3.16-1.415-3.16-3.16 c0-1.745,1.415-3.161,3.16-3.161C396.937,198.614,398.352,200.029,398.352,201.775z"/>
          </g>
          <g>
            <polygon style="fill:#DBE6F7;" points="336.055,255.356 336.055,370.129 169.817,370.129 169.817,255.356 177.462,255.356 &#10;&#9;&#9;&#9;&#9;&#9;&#9;177.392,255.292 177.475,255.356 &#9;&#9;&#9;&#9;&#9;"/>
            <g>
              <g>
                <rect x="169.9" y="250.69" style="fill:#1D38C8;" width="166.154" height="114.774"/>
                <g>
                  <rect x="169.9" y="246.488" style="fill:#4F60D9;" width="166.154" height="114.774"/>
                </g>
                <g style="opacity:0.5;">
                  <g>
                    <path style="fill:#4F60D9;" d="M181.321,285.19v49.913c0,1.661-1.346,3.007-3.007,3.007c-1.661,0-3.007-1.346-3.007-3.007 V285.19c0-1.661,1.346-3.007,3.007-3.007C179.974,282.183,181.321,283.529,181.321,285.19z"/>
                  </g>
                </g>
                <g style="opacity:0.5;">
                  <g>
                    <path style="fill:#4F60D9;" d="M181.321,269.915v5.052c0,1.661-1.346,3.007-3.007,3.007c-1.661,0-3.007-1.346-3.007-3.007 v-5.052c0-1.66,1.346-3.007,3.007-3.007C179.975,266.908,181.321,268.255,181.321,269.915z"/>
                  </g>
                </g>
                <g>
                  <polygon style="fill:#1D38C8;" points="236.971,305.885 174.713,361.261 169.9,361.261 169.9,358.335 233.392,301.864 &#10;&#9;&#9;&#9;&#9;&#9;&#9;&#9;&#9;&#9;&#9;&#9;&#9;&#9;&#9;&#9;&#9;&#9;"/>
                </g>
                <g>
                  <polygon style="fill:#1D38C8;" points="336.055,358.724 336.055,361.261 330.807,361.261 268.549,305.885 272.128,301.864 &#10;&#9;&#9;&#9;&#9;&#9;&#9;&#9;&#9;&#9;&#9;&#9;&#9;&#9;&#9;&#9;&#9;&#9;"/>
                </g>
                <path style="fill:#1D38C8;" d="M336.05,246.487l-25.171,22.387l-52.43,46.629c-3.122,2.779-7.829,2.779-10.953,0 l-52.419-46.622l-25.181-22.394H336.05z"/>
                <g>
                  <path style="fill:#DBE6F7;" d="M310.879,228.15v40.723l-15.975,14.207l-5.506,4.898l-8.546,7.6l-5.506,4.898l-8.546,7.6 l-5.506,4.898l-2.844,2.529c-3.122,2.779-7.829,2.779-10.953,0l-2.844-2.529l-5.506-4.898l-8.546-7.6l-5.507-4.898 l-8.546-7.6l-5.506-4.898l-15.965-14.199V228.15c0-3.668,2.972-6.641,6.641-6.641h102.521 C307.907,221.509,310.879,224.482,310.879,228.15z"/>
                  <path style="fill:#BBD4F2;" d="M237.026,237.366h-28.057c-1.222,0-2.213-0.991-2.213-2.213v-0.473 c0-1.222,0.991-2.213,2.213-2.213h28.056c1.222,0,2.213,0.991,2.213,2.213v0.473 C239.239,236.376,238.248,237.366,237.026,237.366z"/>
                  <g>
                    <path style="fill:#BBD4F2;" d="M300.464,250.482h-91.258c-1.353,0-2.449-1.096-2.449-2.449l0,0 c0-1.353,1.096-2.449,2.449-2.449h91.258c1.353,0,2.449,1.096,2.449,2.449l0,0 C302.913,249.386,301.817,250.482,300.464,250.482z"/>
                    <path style="fill:#BBD4F2;" d="M300.464,262.981h-91.258c-1.353,0-2.449-1.096-2.449-2.449l0,0 c0-1.353,1.096-2.449,2.449-2.449h91.258c1.353,0,2.449,1.096,2.449,2.449l0,0 C302.913,261.884,301.817,262.981,300.464,262.981z"/>
                    <path style="fill:#BBD4F2;" d="M300.464,275.479h-91.258c-1.353,0-2.449-1.096-2.449-2.449l0,0 c0-1.353,1.096-2.449,2.449-2.449h91.258c1.353,0,2.449,1.096,2.449,2.449l0,0 C302.913,274.383,301.817,275.479,300.464,275.479z"/>
                    <polygon style="fill:#BBD4F2;" points="294.904,283.081 289.397,287.978 216.548,287.978 211.041,283.081 &#9;&#9;&#9;&#9;&#9;&#9;&#9;&#9;&#9;"/>
                    <polygon style="fill:#BBD4F2;" points="280.851,295.578 275.345,300.476 230.6,300.476 225.094,295.578 &#9;&#9;&#9;&#9;&#9;&#9;&#9;&#9;&#9;"/>
                    <polygon style="fill:#BBD4F2;" points="266.799,308.076 261.293,312.974 244.652,312.974 239.146,308.076 &#9;&#9;&#9;&#9;&#9;&#9;&#9;&#9;&#9;"/>
                  </g>
                </g>
              </g>
            </g>
          </g>
          <g>
            <g>
              <g>
                <path style="fill:#4F60D9;" d="M309.716,234.607h-0.897c-7.946,0-14.388-6.442-14.388-14.388v-0.897 c0-7.946,6.442-14.388,14.388-14.388h0.897c7.946,0,14.388,6.442,14.388,14.388v0.897 C324.104,228.166,317.662,234.607,309.716,234.607z"/>
              </g>
            </g>
            <g>
              <g>
                <path style="fill:#707FFF;" d="M312.339,234.607h-0.897c-7.946,0-14.388-6.442-14.388-14.388v-0.897 c0-7.946,6.442-14.388,14.388-14.388h0.897c7.946,0,14.388,6.442,14.388,14.388v0.897 C326.727,228.166,320.285,234.607,312.339,234.607z"/>
              </g>
            </g>
            <g>
              <text transform="matrix(1 0 0 1 308.1094 228.813)" style="fill: rgb(255, 255, 255); font-family: Montserrat-Black; font-size: 24.0871px; white-space: pre;">!</text>
            </g>
          </g>
        </g>
      </g>
      <g>
        <path style="fill:#18285D;" d="M459.716,386.437v1.208c0,6.008-1.927,11.564-5.199,16.083 c-4.989,6.901-13.108,11.391-22.276,11.391H71.707c-9.168,0-17.287-4.49-22.276-11.391c-3.272-4.519-5.199-10.075-5.199-16.083 v-1.208H459.716z"/>
      </g>
      <path style="fill:#FFFFFF;" d="M205.408,386.437v0.276c0,2.176,1.457,3.939,3.254,3.939h84.819c1.797,0,3.254-1.764,3.254-3.939 v-0.276H205.408z"/>
      <g>
        <path style="fill:#021147;" d="M454.517,403.728c-4.989,6.901-13.108,11.391-22.276,11.391H71.707 c-9.168,0-17.287-4.49-22.276-11.391H454.517z"/>
      </g>
    </g>
    <g>
      <g>
        <g>
          <polygon style="fill:#FAB083;" points="75.806,368.704 72.167,376.492 79.861,376.612 82.829,369.525 &#9;&#9;&#9;&#9;"/>
          <g>
            <g>
              <path style="fill:#707FFF;" d="M74.589,376.005c0,0-1.58-2.123-2.835-2.032c-1.255,0.091-10.936,7.788-14.253,8.424 c-3.317,0.636-3.009,4.015-1.621,4.015c3.998,0,26.015-0.16,26.015-0.16s0.71-7.695-0.135-10.048 S77.183,376.562,74.589,376.005z"/>
              <g>
                <g>
                  <path style="fill:#FFFFFF;" d="M69.238,381.376c0.117,0.035,0.249,0.024,0.363-0.041c0.223-0.127,0.3-0.41,0.174-0.634 c-0.042-0.075-1.055-1.834-2.419-2.521c-1.814-0.916-3.228,0.109-3.288,0.154c-0.206,0.152-0.249,0.444-0.096,0.65 c0.153,0.206,0.444,0.249,0.65,0.096c0.038-0.028,1.023-0.719,2.315-0.069c1.111,0.56,2.021,2.135,2.03,2.151 C69.029,381.27,69.128,381.343,69.238,381.376z"/>
                </g>
                <g>
                  <path style="fill:#FFFFFF;" d="M70.623,380.068c0.117,0.035,0.248,0.024,0.363-0.041c0.223-0.127,0.301-0.411,0.174-0.634 c-0.043-0.075-1.055-1.834-2.419-2.521c-1.815-0.917-3.228,0.109-3.288,0.153c-0.206,0.153-0.249,0.444-0.096,0.65 c0.152,0.206,0.444,0.249,0.65,0.096c0.039-0.027,1.024-0.719,2.315-0.069c1.116,0.562,2.021,2.135,2.029,2.151 C70.414,379.961,70.512,380.035,70.623,380.068z"/>
                </g>
                <g>
                  <path style="fill:#FFFFFF;" d="M67.361,382.438c0.118,0.035,0.249,0.024,0.363-0.041c0.223-0.127,0.301-0.411,0.174-0.634 c-0.043-0.074-1.055-1.834-2.419-2.521c-1.815-0.917-3.228,0.109-3.288,0.153c-0.206,0.153-0.249,0.444-0.096,0.65 c0.153,0.206,0.444,0.249,0.65,0.096c0.039-0.028,1.024-0.719,2.315-0.069c1.116,0.562,2.021,2.135,2.029,2.151 C67.152,382.331,67.251,382.405,67.361,382.438z"/>
                </g>
              </g>
            </g>
          </g>
        </g>
        <g>
          <g>
            <g>
              <g>
                <g>
                  <g>
                    <path style="fill:#18285D;" d="M73.614,371.243l3.409,1.112l1.895,0.113l3.257,0.191 c4.303-3.403,15.91-13.644,18.172-19.683c0,0,10.836,29.483,31.485,29.483c1.34,0,1.898-12.035-1.468-15.628 c0,0-19.033-35.471-31.371-31.706C93.467,336.81,87.877,344.854,73.614,371.243z"/>
                  </g>
                </g>
              </g>
            </g>
          </g>
          <g>
            <g>
              <path style="fill:#021147;" d="M77.023,372.355l1.895,0.113c12.666-9.591,18.534-17.713,21.235-22.915 c0.093-0.181,0.245-0.239,0.347-0.237c0.088,0.003,0.152,0.051,0.193,0.154c6.065,14.277,13.344,22.846,18.382,27.523 c5.491,5.095,9.508,6.775,9.674,6.845l0.232-0.567l0.232-0.565c-0.039-0.017-4.024-1.692-9.366-6.664 c-4.934-4.591-12.067-13.011-18.03-27.052c-0.227-0.54-0.704-0.875-1.271-0.897c-0.611-0.025-1.183,0.327-1.479,0.895 C96.344,354.234,90.31,362.524,77.023,372.355z"/>
            </g>
          </g>
          <g>
            <path style="fill:#3B3E7D;" d="M85.59,370.336c-0.542,1.014-1.473,2.445-2.363,3.137c0,0-7.294-0.337-10.841-2.119l1.591-3.708 C73.977,367.646,79.783,369.765,85.59,370.336z"/>
          </g>
        </g>
      </g>
      <g>
        <g>
          <path style="fill:#4F60D9;" d="M131.315,306.522c0,0-14.135,16.873-20.072,19.645c-2.606,1.217-5.18,1.646-7.081,1.714 c-0.638,0.024-2.298-0.111-2.389-0.113c-0.008,0-0.015,0.002-0.015,0.002c-7.053-0.874-15.343-2.997-25.715-7.221l1.546-4.804 c0,0,6.232,1.324,13.869,1.869c2.816,0.198,9.312,0.496,11.714,0.884c0.595-0.267,1.181-0.556,1.752-0.869 c10.54-5.689,17.496-17.272,17.496-17.272C125.756,301.609,129.586,303.949,131.315,306.522z"/>
        </g>
        <g>
          <g>
            <g>
              <path style="fill:#FAB083;" d="M77.852,315.363c0,0-1.444-3.648-3.409-4.689c-1.965-1.041-7.557-4.707-8.75-3.61 c-1.193,1.097-0.947,6.364,4.066,10.767c3.193,2.805,6.411,2.686,6.411,2.686L77.852,315.363z"/>
            </g>
            <g>
              <g>
                <g>
                  <path style="fill:#18285D;" d="M65.334,310.415l8.254,7.711c0.31,0.292,0.87,0.375,1.253,0.19l5.059-2.446 c0.157-0.077,0.26-0.187,0.304-0.311l0.012-0.04l0.248-0.845l-1.342-0.508l-12.986-4.933l-0.704-0.265l-0.264,0.893 l-0.02,0.062c-0.004,0.007-0.005,0.014-0.002,0.022C65.115,310.101,65.179,310.272,65.334,310.415z"/>
                </g>
              </g>
              <g>
                <g>
                  <path style="fill:#3B3E7D;" d="M75.093,317.459l5.061-2.447c0.382-0.185,0.44-0.568,0.131-0.857l-8.255-7.711 c-0.309-0.289-0.869-0.374-1.251-0.189l-5.061,2.447c-0.382,0.185-0.44,0.568-0.13,0.857l8.254,7.711 C74.152,317.559,74.712,317.643,75.093,317.459z"/>
                </g>
              </g>
              <g>
                <g>
                  <path style="fill:#58619B;" d="M74.479,316.077l3.921-1.896c0.382-0.184,0.44-0.568,0.131-0.857l-6.42-5.997 c-0.309-0.289-0.87-0.374-1.251-0.189l-3.921,1.896c-0.381,0.185-0.44,0.568-0.13,0.857l6.42,5.997 C73.538,316.177,74.098,316.262,74.479,316.077z"/>
                </g>
              </g>
            </g>
            <g>
              <path style="fill:#FAB083;" d="M74.584,308.829c0,0-1.176,0.183-1.296,1.194c-0.12,1.011,0.974,0.609,1.677,0.387 c0.703-0.222,1.337,0.001,1.433,0.115C76.706,310.886,76.653,308.529,74.584,308.829z"/>
            </g>
            <g>
              <path style="fill:#FAB083;" d="M69.327,314.318c0,0-1.845-3.032-3.259-4.688c-0.942-1.104-1.423,0.497-0.778,1.613 C65.935,312.359,67.207,314.632,69.327,314.318z"/>
            </g>
          </g>
        </g>
      </g>
      <g>
        <g>
          <path style="fill:#707FFF;" d="M141.238,289.043c0,0,8.908,0.045,12.969,3.716c4.061,3.671,0.185,11.13-4.22,12.086 c-4.405,0.956-18.16-0.674-19.59-3.032C128.966,299.456,129.873,289.224,141.238,289.043z"/>
        </g>
        <g>
          <g>
            <g>
              <path style="fill:#707FFF;" d="M155.286,368.985l4.33-27.922l-0.939-38.519l-10.36-3.503l-0.556-0.188l-2.325-0.786 l-1.846-0.623l-10.938,1.507l-1.78,0.244l-0.628,0.087l-7.825,1.077c-0.074,24.756,2.303,30.103-2.273,50.241 C117.846,358.192,126.294,385.093,155.286,368.985z"/>
            </g>
          </g>
        </g>
        <g>
          <g>
            <path style="fill:#4F60D9;" d="M140.495,304.953c7.837-0.029,9.656-6.936,9.674-7.006c0.039-0.155-0.055-0.312-0.21-0.351 c-0.154-0.04-0.312,0.055-0.351,0.21c-0.068,0.269-1.738,6.541-9.113,6.568c-0.041,0-0.081,0-0.122,0 c-0.155,0.008-0.29,0.128-0.29,0.287c-0.001,0.16,0.128,0.29,0.288,0.291C140.412,304.953,140.455,304.953,140.495,304.953z"/>
          </g>
        </g>
        <g>
          <g>
            <path style="fill:#4F60D9;" d="M133.132,303.871c0.157-0.001,0.286-0.127,0.288-0.285c0.002-0.159-0.125-0.291-0.284-0.294 c-0.103-0.002-2.382-0.094-2.971-3.174c-0.03-0.157-0.18-0.26-0.338-0.23c-0.157,0.03-0.26,0.182-0.229,0.338 c0.681,3.561,3.5,3.644,3.529,3.644C133.128,303.871,133.13,303.871,133.132,303.871z"/>
          </g>
        </g>
        <g>
          <path style="fill:#4F60D9;" d="M145.786,342.949c0,0,1.273,9.717-1.319,14.472c0,0-12.889,0.903-22.26-2.782 c0,0,2.341-6.783,2.377-13.405L145.786,342.949z"/>
        </g>
        <g>
          <path style="fill:#FFFFFF;" d="M138.903,332.665c0.008,0,0.017,0,0.025-0.001c0.159-0.014,0.277-0.155,0.262-0.314 c-0.648-7.204,2.051-25.391,2.078-25.574c0.024-0.158-0.085-0.305-0.243-0.329c-0.158-0.024-0.305,0.085-0.329,0.243 c-0.028,0.184-2.737,18.439-2.082,25.711C138.628,332.552,138.754,332.666,138.903,332.665z"/>
        </g>
        <g>
          <path style="fill:#FFFFFF;" d="M129.37,331.254c0.008,0,0.017,0,0.025-0.001c0.159-0.014,0.276-0.155,0.262-0.314 c-0.648-7.204,2.142-25.533,2.17-25.717c0.024-0.158-0.084-0.305-0.242-0.329c-0.158-0.025-0.305,0.084-0.33,0.242 c-0.028,0.185-2.829,18.584-2.175,25.857C129.095,331.142,129.222,331.255,129.37,331.254z"/>
        </g>
      </g>
      <g>
        <path style="fill:#FAB083;" d="M166.484,378.734c0,0-3.209,4.352-2.945,6.603c0.265,2.252,3.171,6.495,5.494,6.7 c2.323,0.205-2.669-5.453-1.491-5.27c1.426,0.221,11.051,8.118,13.083,8.118c2.031,0-2.39-3.67-4.112-4.598 c0,0,4.554,2.037,5.614,3.097c1.06,1.06,1.829-1.213-3.469-4.437c0,0,4.86,2.759,5.191,2.803c1.081,0.144-2.003-3.472-4.659-4.78 c0,0,3.896,1.897,4.292,1.905c0.548,0.012-0.627-1.263-3.519-2.866c-2.601-1.442-6.864-8.062-6.864-8.062L166.484,378.734z"/>
        <path style="fill:#707FFF;" d="M158.678,302.544c0,0,10.802,20.748,13.262,42.45l1.159,32.953c0,0-1.11,2.348-6.615,0.787 l-5.324-32.949l-4.08-15.076C157.08,330.709,155.225,312.156,158.678,302.544z"/>
      </g>
      <g>
        <g>
          <path style="fill:#021147;" d="M125.5,280.111c1.148,6.491,7.34,10.824,13.831,9.676c6.491-1.147,10.823-7.34,9.676-13.831 c-1.148-6.491-7.34-10.823-13.831-9.676C128.685,267.427,124.353,273.619,125.5,280.111z"/>
        </g>
        <g>
          <path style="fill:#021147;" d="M125.32,277.969c0,0-3.491-0.331-3.623-3.639c-0.112-2.816,3.433-1.604,2.769-3.702 c-0.664-2.099-1.64-3.941,1.045-4.97c2.349-0.9,2.684,0.759,5.449-2.223c3.267-3.523,7.334,2.578,10.736,2.182 c5.017-0.585,6.141,2.113,7.026,4.273c0.885,2.16-0.747,4.074-0.747,4.074L125.32,277.969z"/>
        </g>
        <g>
          <path style="fill:#FC8664;" d="M128.056,283.051c0,0-2.301-2.153-3.322,0.144c-1.022,2.297,2.007,8.014,5.135,5.935 L128.056,283.051z"/>
          <g>
            <path style="fill:#FD664D;" d="M128.798,287.387c-0.125,0.022-0.255-0.04-0.313-0.16c-0.856-1.779-2.929-2.195-2.95-2.199 c-0.158-0.03-0.261-0.182-0.231-0.34c0.03-0.158,0.182-0.261,0.339-0.232c0.097,0.018,2.381,0.47,3.367,2.518 c0.069,0.145,0.009,0.319-0.136,0.388C128.849,287.375,128.824,287.383,128.798,287.387z"/>
          </g>
          <g>
            <g>
              <path style="fill:#FD664D;" d="M126.674,286.79c-0.053,0.009-0.109,0.004-0.163-0.018c-0.148-0.062-0.218-0.233-0.156-0.381 c0.01-0.025,0.261-0.609,0.922-1.057c0.132-0.09,0.314-0.055,0.404,0.078c0.09,0.133,0.056,0.314-0.078,0.404 c-0.511,0.346-0.71,0.796-0.711,0.8C126.852,286.711,126.768,286.774,126.674,286.79z"/>
            </g>
          </g>
        </g>
        <path style="fill:#FAB083;" d="M143.566,292.012l1.066,6.029c0,0-2.009,3.095-4.404,3.734c-2.392,0.641-4.38-1.983-4.38-1.983 l-1.025-5.798L143.566,292.012z"/>
        <path style="fill:#FC8664;" d="M143.566,292.012l0.473,2.675c-1.311,2.099-4.129,3.064-8.529,3.189l-0.686-3.881L143.566,292.012 z"/>
        <path style="fill:#FAB083;" d="M147.185,275.404c0.302,2.363,0.597,5.332,0.564,7.754c-0.008,0.604-0.037,1.176-0.091,1.694 c-0.484,4.667-2.31,12.847-11.756,11.244c-4.172-0.707-6.763-4.757-8.359-9.058c-1.083-2.922-1.706-5.957-2.051-8.144 c-0.351-2.233,0.504-4.481,2.247-5.921c4.719-3.9,10.449-3.77,14.34-3.013C144.779,270.483,146.837,272.68,147.185,275.404z"/>
        <g>
          <path style="fill:#021147;" d="M132.662,283.048c0.114,0.644-0.126,1.224-0.535,1.296c-0.409,0.072-0.833-0.391-0.947-1.034 c-0.114-0.643,0.126-1.224,0.535-1.296C132.124,281.941,132.548,282.404,132.662,283.048z"/>
        </g>
        <g>
          <path style="fill:#021147;" d="M141.338,281.514c0.114,0.644-0.126,1.224-0.535,1.296c-0.409,0.072-0.833-0.391-0.947-1.034 c-0.114-0.644,0.126-1.224,0.535-1.296C140.8,280.408,141.224,280.871,141.338,281.514z"/>
        </g>
        <g>
          <path style="fill:#021147;" d="M128.879,280.026c0,0,2.869-1.764,5.425-1.158l-0.003,1.137c0,0-2.673-0.119-5.025,1.265 C129.027,280.79,128.77,280.584,128.879,280.026z"/>
        </g>
        <g>
          <path style="fill:#021147;" d="M142.991,277.531c0,0-3.299-0.674-5.493,0.772l0.393,1.067c0,0,2.47-1.029,5.154-0.535 C143.113,278.3,143.284,278.019,142.991,277.531z"/>
        </g>
        <g>
          <g>
            <path style="fill:#FC8664;" d="M137.577,286.908c0.483-0.086,0.929-0.358,0.998-0.402c0.135-0.086,0.176-0.265,0.09-0.401 c-0.085-0.136-0.265-0.177-0.401-0.091c-0.24,0.151-0.832,0.425-1.13,0.312c-0.058-0.022-0.139-0.071-0.188-0.242 c-0.28-0.982-0.599-4.383-0.602-4.417c-0.015-0.16-0.157-0.277-0.316-0.262c-0.161,0.014-0.278,0.156-0.263,0.316 c0.013,0.142,0.327,3.49,0.622,4.523c0.111,0.389,0.355,0.555,0.54,0.626C137.131,286.947,137.358,286.947,137.577,286.908z"/>
          </g>
        </g>
        <path style="fill:#FFFFFF;" d="M134.284,289.297c0.442,1.136,1.603,3.166,4.225,2.702c2.627-0.464,3.014-2.575,3.026-3.984 L134.284,289.297z"/>
        <g>
          <path style="fill:#FC8664;" d="M138.737,293.501c0.741-0.131,1.303-0.618,1.327-0.638c0.121-0.106,0.133-0.29,0.027-0.41 c-0.106-0.121-0.29-0.133-0.41-0.027c-0.004,0.004-0.467,0.401-1.045,0.503c-0.53,0.094-1.091-0.121-1.097-0.123 c-0.149-0.059-0.318,0.013-0.378,0.163c-0.059,0.149,0.013,0.318,0.163,0.378C137.353,293.358,138.037,293.625,138.737,293.501z "/>
        </g>
        <g>
          <path style="fill:#021147;" d="M128.1,285.013c-0.425-1.143-0.909-2.63-0.891-3.439c0.035-1.432,1.036-2.448,0.418-3.714 c-0.618-1.271,0.538-2.954,1.535-3.375c0.994-0.424,3.511-0.336,5.697-1.891c2.087-1.486,6.185-1.411,7.09-0.063 c1.094,1.633,0.061,1.988,2.531,3.526c0.984,0.613,0.327,2.773,0.411,4.088c0.04,0.605,0.082,0.896,0.218,1.529l0.066,0.322 l2.551-0.451c-0.072-2.049-0.301-4.282-0.539-6.141c-0.348-2.724-2.408-4.919-5.108-5.444c-3.892-0.757-9.62-0.889-14.341,3.013 c-1.741,1.44-2.597,3.687-2.245,5.92c0.273,1.734,0.722,4.004,1.437,6.328L128.1,285.013z"/>
        </g>
        <g>
          <path style="fill:#FAB083;" d="M146.79,282.846c-0.126-0.666-0.197-1.342-0.196-2.019c0-0.927,0.117-1.788,0.97-2.325 c0.687-0.432,1.476-0.578,2.185,0.157c1.747,1.808,1.334,8.468-2.317,7.588L146.79,282.846z"/>
          <g>
            <g>
              <path style="fill:#FC8664;" d="M147.759,284.27c0.118-0.046,0.197-0.167,0.184-0.3c-0.194-1.965,1.361-3.398,1.376-3.412 c0.119-0.108,0.128-0.292,0.021-0.411c-0.107-0.119-0.291-0.129-0.41-0.021c-0.073,0.066-1.789,1.639-1.566,3.902 c0.016,0.16,0.158,0.276,0.318,0.261C147.709,284.285,147.735,284.279,147.759,284.27z"/>
            </g>
          </g>
          <g>
            <path style="fill:#FC8664;" d="M149.263,282.655c0.05-0.02,0.096-0.053,0.13-0.1c0.094-0.13,0.065-0.312-0.065-0.406 c-0.022-0.016-0.539-0.384-1.337-0.423c-0.16-0.008-0.297,0.116-0.304,0.276c-0.008,0.16,0.116,0.297,0.276,0.305 c0.617,0.03,1.02,0.31,1.024,0.313C149.069,282.68,149.174,282.69,149.263,282.655z"/>
          </g>
        </g>
      </g>
      <g>
        <g>
          <g>
            <path style="fill:#3B3E7D;" d="M156.01,375.229c-0.188,0.853-0.516,1.725-1.018,2.593c-1.511,2.609-4.609,5.212-10.361,7.303 c-11.923,4.331-34.722,2.297-34.722,2.297c0.276,8.894-20.92,38.857-20.92,38.857l-1.041-0.673l-0.98-0.634l-4.086-2.642 c0,0,14.001-50.329,23.521-51.77c33.68-5.097,48.882-1.575,48.882-1.575C156.015,370.666,156.534,372.878,156.01,375.229z"/>
          </g>
          <g>
            <path style="fill:#18285D;" d="M156.01,375.229c-0.188,0.853-0.516,1.725-1.018,2.593c-4.908,3.97-13.645,6.272-26.037,6.86 c-9.152,0.431-17.483-0.26-19.685-0.469c-2.176,15.316-17.999,36.983-21.322,41.394c-0.315,0.418-0.516,0.678-0.585,0.768 c-0.113,0.15-0.286,0.227-0.459,0.227c-0.124,0-0.25-0.041-0.356-0.124c-0.253-0.193-0.299-0.559-0.103-0.812 c0.018-0.023,0.204-0.263,0.523-0.693c3.148-4.197,19.417-26.532,21.224-41.461c0.036-0.317,0.322-0.542,0.637-0.508 C109.203,383.045,146.07,386.901,156.01,375.229z"/>
          </g>
        </g>
        <g>
          <g>
            <polygon style="fill:#FAB083;" points="83.671,422.329 78.688,428.16 84.639,431.724 88.989,426.278 &#9;&#9;&#9;&#9;&#9;"/>
            <g>
              <path style="fill:#58619B;" d="M90.473,426.159c-0.733,1.713-1.244,2.265-2.404,3.111c0,0-3.749-1.719-7.601-5.078 l2.413-3.259C82.882,420.934,85.732,422.759,90.473,426.159z"/>
            </g>
            <g>
              <g>
                <path style="fill:#707FFF;" d="M80.378,428.561c0,0-0.306-2.628-1.438-3.178c-1.132-0.549-13.366,1.269-16.556,0.159 c-3.19-1.11-4.614,1.969-3.413,2.664c3.461,2.001,22.602,12.882,22.602,12.882s4.465-6.307,4.912-8.767 C86.934,429.862,82.345,430.341,80.378,428.561z"/>
                <g>
                  <g>
                    <path style="fill:#FFFFFF;" d="M73.057,430.533c0.084,0.089,0.203,0.145,0.335,0.146c0.257,0.001,0.465-0.205,0.468-0.462 c0.001-0.086,0.004-2.116-0.833-3.393c-1.112-1.701-2.85-1.521-2.923-1.512c-0.255,0.029-0.438,0.26-0.408,0.515 c0.029,0.255,0.26,0.438,0.515,0.408c0.047-0.005,1.246-0.111,2.039,1.099c0.682,1.041,0.681,2.86,0.681,2.878 C72.93,430.336,72.978,430.449,73.057,430.533z"/>
                  </g>
                  <g>
                    <path style="fill:#FFFFFF;" d="M74.911,430.093c0.084,0.089,0.203,0.145,0.335,0.146c0.257,0.001,0.466-0.205,0.468-0.462 c0.001-0.086,0.004-2.116-0.832-3.393c-1.113-1.702-2.85-1.521-2.923-1.513c-0.255,0.029-0.438,0.26-0.408,0.515 c0.029,0.255,0.259,0.438,0.515,0.408c0.047-0.004,1.246-0.11,2.039,1.099c0.685,1.045,0.68,2.86,0.68,2.878 C74.784,429.896,74.832,430.009,74.911,430.093z"/>
                  </g>
                  <g>
                    <path style="fill:#FFFFFF;" d="M70.9,430.513c0.084,0.089,0.203,0.145,0.335,0.146c0.257,0.001,0.466-0.205,0.468-0.462 c0-0.086,0.004-2.116-0.833-3.393c-1.112-1.702-2.849-1.521-2.923-1.513c-0.255,0.029-0.438,0.26-0.408,0.515 c0.029,0.255,0.26,0.438,0.515,0.408c0.047-0.004,1.247-0.11,2.039,1.099c0.684,1.045,0.681,2.86,0.68,2.878 C70.773,430.315,70.821,430.429,70.9,430.513z"/>
                  </g>
                </g>
              </g>
            </g>
          </g>
        </g>
      </g>
    </g>
    <g>
      <g>
        <g>
          <path style="fill:#FAB083;" d="M355.689,419.482l-1.392,6.366c0,0,3.815,2.83,6.51,1.298l1.402-6.216L355.689,419.482z"/>
          <g>
            <path style="fill:#707FFF;" d="M355.598,425.467c0,0-1.067-2.167-2.209-2.293c-1.142-0.126-11.107,5.181-14.19,5.202 c-3.083,0.022-3.566,3.769-2.462,4.392c1.258,0.71,23.458,4.048,23.458,4.048s2.176-7.731,1.808-9.983 C361.634,424.58,357.835,426.396,355.598,425.467z"/>
            <g>
              <g>
                <path style="fill:#FFFFFF;" d="M349.905,429.403c0.099,0.051,0.219,0.063,0.333,0.023c0.221-0.077,0.338-0.319,0.261-0.54 c-0.026-0.074-0.644-1.821-1.754-2.663c-1.476-1.123-2.916-0.436-2.977-0.407c-0.21,0.103-0.297,0.357-0.194,0.567 c0.103,0.21,0.357,0.297,0.568,0.194c0.039-0.019,1.038-0.476,2.09,0.321c0.905,0.686,1.46,2.251,1.466,2.267 C349.735,429.272,349.812,429.355,349.905,429.403z"/>
              </g>
              <g>
                <path style="fill:#FFFFFF;" d="M351.365,428.458c0.099,0.051,0.219,0.063,0.333,0.023c0.221-0.077,0.338-0.319,0.261-0.54 c-0.026-0.074-0.644-1.821-1.754-2.663c-1.478-1.124-2.916-0.437-2.977-0.407c-0.21,0.103-0.297,0.357-0.194,0.568 c0.103,0.21,0.357,0.297,0.568,0.194c0.039-0.018,1.038-0.476,2.09,0.321c0.909,0.69,1.46,2.251,1.466,2.267 C351.195,428.327,351.271,428.409,351.365,428.458z"/>
              </g>
              <g>
                <path style="fill:#FFFFFF;" d="M348.044,430.045c0.099,0.051,0.219,0.063,0.333,0.023c0.221-0.077,0.338-0.319,0.261-0.54 c-0.026-0.074-0.644-1.821-1.754-2.664c-1.478-1.124-2.916-0.436-2.977-0.407c-0.21,0.103-0.297,0.358-0.194,0.568 c0.103,0.21,0.357,0.297,0.568,0.194c0.039-0.018,1.039-0.476,2.09,0.321c0.908,0.69,1.46,2.251,1.466,2.267 C347.874,429.914,347.951,429.997,348.044,430.045z"/>
              </g>
            </g>
          </g>
        </g>
        <g>
          <g>
            <path style="fill:#3B3E7D;" d="M387.179,322.224c-0.57,2.452-1.14,4.977-1.719,7.565c-3.411,15.292-7.103,32.874-12.532,50.473 c-1.982,15.781-5.438,25.807-10.089,41.696c-0.461,0.091-1.131,0.109-1.909,0.063c-0.29-0.018-0.597-0.045-0.914-0.09 c-1.936-0.235-4.253-0.869-5.719-1.973c0,0,2.823-19.237,6.732-40.891c2.081-11.555,5.773-39.85,7.529-53.55 c0.597-4.705,0.968-7.682,0.968-7.682l14.803,3.683l0.244,0.054l0.633,0.163L387.179,322.224z"/>
          </g>
          <path style="fill:#18285D;" d="M387.179,322.224c-0.57,2.452-1.14,4.977-1.719,7.565l-16.903-4.271 c0.597-4.705,0.968-7.682,0.968-7.682l14.803,3.683l0.244,0.054l0.633,0.163L387.179,322.224z"/>
          <g>
            <path style="fill:#18285D;" d="M385.204,321.726v0.009l-14.025,58.255c-0.018,0.154-2.733,19.228-10.252,42.031 c-0.29-0.018-0.597-0.045-0.914-0.091c7.529-22.802,10.252-41.913,10.279-42.112l14.034-58.3l0.244,0.054L385.204,321.726z"/>
          </g>
        </g>
      </g>
      <g>
        <g>
          <polygon style="fill:#FAB083;" points="397.503,418.944 398.069,427.307 404.176,425.844 404.176,418.944 &#9;&#9;&#9;&#9;"/>
          <g>
            <g>
              <path style="fill:#707FFF;" d="M400.212,425.578c0,0,3.243-0.861,4.139-0.843c0.896,0.019,6.893,6.74,8.915,7.138 c3.666,0.721,3.664,6.447,1.433,6.728c-6.455,0.815-17.492-1.924-17.492-1.924s-1.009-7.348-0.564-9.652 C397.087,424.721,398.408,426.254,400.212,425.578z"/>
              <g>
                <g>
                  <path style="fill:#FFFFFF;" d="M405.549,431.856c-0.115,0.025-0.24,0.005-0.346-0.066c-0.205-0.138-0.259-0.416-0.121-0.62 c0.046-0.068,1.144-1.684,2.502-2.245c1.806-0.749,3.089,0.337,3.143,0.383c0.187,0.161,0.207,0.444,0.045,0.631 c-0.161,0.187-0.444,0.207-0.631,0.045c-0.035-0.03-0.93-0.764-2.217-0.233c-1.106,0.457-2.092,1.904-2.102,1.918 C405.757,431.768,405.657,431.832,405.549,431.856z"/>
                </g>
                <g>
                  <path style="fill:#FFFFFF;" d="M404.314,430.501c-0.115,0.025-0.24,0.005-0.345-0.066c-0.205-0.138-0.259-0.416-0.121-0.62 c0.046-0.069,1.145-1.684,2.502-2.245c1.807-0.749,3.089,0.337,3.143,0.384c0.187,0.161,0.207,0.444,0.045,0.63 c-0.161,0.187-0.444,0.207-0.63,0.045c-0.035-0.029-0.931-0.764-2.217-0.233c-1.111,0.46-2.092,1.903-2.102,1.918 C404.522,430.413,404.422,430.477,404.314,430.501z"/>
                </g>
                <g>
                  <g>
                    <g>
                      <path style="fill:#FFFFFF;" d="M407.273,433.009c-0.115,0.025-0.24,0.005-0.345-0.066 c-0.205-0.138-0.259-0.416-0.121-0.621c0.046-0.068,1.144-1.684,2.502-2.245c1.807-0.749,3.089,0.337,3.143,0.383 c0.187,0.162,0.207,0.444,0.045,0.631c-0.161,0.187-0.444,0.207-0.63,0.045c-0.035-0.029-0.931-0.764-2.217-0.233 c-1.111,0.459-2.092,1.904-2.102,1.918C407.482,432.922,407.382,432.986,407.273,433.009z"/>
                    </g>
                  </g>
                </g>
              </g>
            </g>
          </g>
        </g>
        <g>
          <g>
            <path style="fill:#3B3E7D;" d="M405.01,419.849c-1.43,0.615-3.493,0.796-5.483,0.76c-0.308,0-0.615-0.009-0.914-0.036 c-0.733-0.027-1.439-0.09-2.081-0.163l-8.75-90.73l-0.715-7.456l1.683-0.127l0.905-0.063l15.012-1.095 c0,0-0.009,1.828-0.009,4.805c-0.009,10.225,0.045,34.041,0.624,44.329C406.023,383.365,405.01,419.849,405.01,419.849z"/>
          </g>
          <path style="fill:#18285D;" d="M404.666,320.939c0,0-0.009,1.828-0.009,4.805l-16.876,3.936l-0.715-7.456l1.683-0.127 l0.905-0.063L404.666,320.939z"/>
          <g>
            <path style="fill:#18285D;" d="M399.524,420.609c-0.308,0-0.615-0.009-0.914-0.036l-9.863-98.476l0.905-0.063L399.524,420.609z "/>
          </g>
        </g>
      </g>
      <g>
        <g>
          <path style="fill:#FAB083;" d="M401.022,269.202l4.036,12.964l4.419,12.324c0.711,2.58,3.559,3.908,5.992,2.797 c0.043-0.019,0.085-0.038,0.128-0.057c4.204-1.988,1.886-10.232,1.886-10.232l-0.794-0.062c-0.323-0.905-1.196-3.207-2.307-6.1 c-0.134-0.356-0.275-0.722-0.417-1.092c-0.236-0.615-0.481-1.249-0.73-1.901c-0.355-0.92-0.721-1.869-1.092-2.825 c-2.724-7.067-4.981-14.735-4.981-14.735l-1.881-5.584L401.022,269.202z"/>
          <path style="fill:#FAB083;" d="M412.96,289.828c0,0,0.579-9.392,2.583-11.389c2.004-1.997,3.833-2.759,5.713-2.691 c1.879,0.068,3.647,0.301,3.531,1.074c0,0,4.317-0.652,6.245,0.466c1.927,1.119-5.709,2.098-7.976,2.157 c-2.267,0.059-3.465,1.326-3.556,2.677c-0.092,1.351-1.4,10.301-1.4,10.301L412.96,289.828z"/>
          <g>
            <path style="fill:#707FFF;" d="M401.647,272.649c0,0,7.132,22.772,8.765,24.319c1.633,1.547,5.302,3.13,7.304-1.036 c2.002-4.167,2.402-15.294,2.402-15.294l-4.98-2.317l-0.779,2.453l-9-26.132C405.359,254.641,402.162,270.931,401.647,272.649z "/>
            <g>
              <g>
                <path style="fill:#4F60D9;" d="M412.358,289.637c0.018,0.002,0.033,0.002,0.051,0.003c0.161,0.001,0.304-0.115,0.329-0.279 c0.614-3.908,1.212-6.857,1.621-8.588c-0.135-0.355-0.228-0.701-0.369-1.071c-0.384,1.526-1.163,4.818-1.909,9.555 C412.054,289.438,412.177,289.607,412.358,289.637z"/>
              </g>
            </g>
          </g>
        </g>
        <g>
          <path style="fill:#18285D;" d="M410.673,277.43l28.614,0.191c1.076,0.007,1.954-0.859,1.962-1.935l0-0.017 c0.007-1.076-0.859-1.954-1.935-1.962l-28.614-0.191c-1.076-0.007-1.954,0.859-1.962,1.935l0,0.017 C408.73,276.544,409.597,277.423,410.673,277.43z"/>
          <g>
            <path style="fill:#3B3E7D;" d="M441.228,277.635l6.264-22.844c0.352-1.283-0.608-2.551-1.939-2.56l-13.447-0.09 c-0.907-0.006-1.708,0.592-1.959,1.464l-6.889,23.91L441.228,277.635z"/>
          </g>
          <path style="fill:#18285D;" d="M430.147,253.604l-6.832,23.713l-1.537-0.01l6.832-23.713c0.253-0.872,1.052-1.471,1.96-1.465 l1.537,0.01C431.199,252.133,430.4,252.732,430.147,253.604z"/>
          <g>
            <path style="fill:#58619B;" d="M433.522,265.891c-0.359,1.507,0.573,2.737,2.082,2.747c1.509,0.01,3.025-1.204,3.384-2.711 c0.36-1.507-0.573-2.737-2.082-2.747C435.397,263.17,433.882,264.384,433.522,265.891z"/>
          </g>
        </g>
      </g>
      <g>
        <g>
          <path style="fill:#FAB083;" d="M325.547,245.686c-0.562,0.066-1.101,0.005-1.559-0.236c-1.21-0.633-2.216-1.262-2.797-1.644 c-0.345-0.236-0.543-0.373-0.543-0.373s-0.014,0-0.024,0.01c-0.132,0.023-0.784,0.118-1.88-0.506 c-1.233-0.709-1.876-1.904-1.72-2.561c0.151-0.657,1.006-0.827,1.006-0.827s-0.43-0.624-0.217-1.304 c0.213-0.685,1.578-1.035,1.578-1.035s-0.383-0.86,0.302-1.422c0.652-0.543,2.102,0.487,2.23,0.567 c-0.194-0.203-4.54-4.757-3.251-4.786c1.318-0.028,5.896,4.162,6.113,4.257c0.213,0.099,1.328,0.023,2.409,0.17 c1.082,0.142,1.616,0.638,2.103,2.272c0.487,1.635,0.332,4.273,0.332,4.273c0.335,0.25,0.983,0.834,1.371,1.117 c0,0,0.238,0.129,0.262,0.143c0.813,0.468,13.564,7.596,17.651,10.785c0.005,0,0.005,0.005,0.009,0.005 c0.146,0.113,0.378,0.208,0.685,0.293c4.2,1.138,22.299-0.227,22.299-0.227l0.936,9.898c0,0-18.175,1.077-26.84-3.237 c-6.836-3.401-17.791-13.643-17.791-13.643L325.547,245.686z"/>
          <g>
            <g>
              <path style="fill:#FC8664;" d="M327.03,240.355c0.047,0.012,0.097,0.014,0.147,0.002c0.161-0.038,0.261-0.201,0.223-0.362 l-0.325-1.367c-0.02-0.082-0.073-0.152-0.146-0.193c-0.074-0.041-0.161-0.049-0.241-0.023 c-0.015,0.005-1.563,0.503-2.694-0.124c-0.346-0.192-0.554-0.413-0.601-0.639c-0.054-0.255,0.106-0.47,0.108-0.472 c0.099-0.131,0.076-0.32-0.054-0.42c-0.13-0.101-0.316-0.08-0.419,0.049c-0.034,0.043-0.329,0.434-0.225,0.955 c0.082,0.412,0.385,0.766,0.9,1.053c1.035,0.575,2.285,0.389,2.86,0.255l0.253,1.066 C326.842,240.245,326.927,240.327,327.03,240.355z"/>
            </g>
            <g>
              <path style="fill:#FC8664;" d="M320.622,243.44c0.016-0.006,0.025-0.008,0.025-0.008s0.197,0.14,0.546,0.37 c0.67-0.464,0.899-1.172,1.094-1.767c0.168-0.517,0.315-0.965,0.68-1.222c0.378-0.264,0.595-0.61,0.713-0.965 c0.118-0.34,0.142-0.69,0.128-0.982c-0.004-0.109-0.012-0.211-0.024-0.299c-0.029-0.232-0.073-0.387-0.078-0.407 c-0.046-0.16-0.212-0.254-0.372-0.207c-0.159,0.044-0.252,0.21-0.207,0.37c0.001,0.003,0.007,0.027,0.016,0.071 c0.041,0.181,0.123,0.678-0.005,1.156c-0.077,0.288-0.232,0.571-0.518,0.772c-0.529,0.371-0.722,0.958-0.907,1.527 C321.504,242.493,321.304,243.108,320.622,243.44z"/>
            </g>
            <g>
              <path style="fill:#FC8664;" d="M325.237,242.367c0.109,0.029,0.23-0.005,0.308-0.096c0.107-0.127,0.091-0.316-0.036-0.423l0,0 c-0.015-0.013-1.514-1.308-1.247-2.995c0.026-0.164-0.087-0.318-0.25-0.344c-0.164-0.026-0.318,0.086-0.344,0.25 c-0.32,2.026,1.38,3.487,1.453,3.548C325.156,242.336,325.196,242.356,325.237,242.367z"/>
            </g>
          </g>
        </g>
      </g>
      <g>
        <path style="fill:#707FFF;" d="M406.184,321.216c-7.15,1.654-12.928,2.499-18.635,2.551c-0.035,0-0.07,0.004-0.104,0 c-0.035,0.004-0.069,0-0.106,0c-5.708-0.052-11.482-0.897-18.635-2.551c-1.001-12.819,3.379-20.934,2.892-35.304 c-0.004-0.124-0.009-0.25-0.013-0.374c-0.022-0.621-0.05-1.236-0.08-1.849c-0.057-1.165-0.126-2.318-0.206-3.452 c-0.042-0.622-0.089-1.239-0.137-1.849c-0.986-12.415-2.953-22.251-1.886-23.597c1.158-1.462,4.104-3.187,7.098-4.788 c2.84-1.515,5.721-2.92,7.165-3.881c1.432,0.624,2.573,0.965,3.802,0.96c0.033,0,0.07,0,0.106-0.004 c0.034,0.004,0.07,0.004,0.104,0.004c1.228,0.006,2.37-0.335,3.804-0.96c1.339,0.891,3.863,2.134,6.436,3.49 c3.129,1.649,6.333,3.465,7.57,5.028c1.112,1.404-0.882,12.159-1.766,25.36c-0.039,0.593-0.076,1.189-0.111,1.792 c-0.076,1.301-0.139,2.622-0.185,3.957c-0.002,0.054-0.004,0.108-0.005,0.161c-0.019,0.528-0.03,1.047-0.035,1.558 C403.118,300.884,407.147,308.867,406.184,321.216z"/>
        <g>
          <g>
            <path style="fill:#4F60D9;" d="M399.016,305.01c0,0-0.001,0-0.002,0c-7.207-0.032-13.358-3.311-17.249-6.057 c-4.208-2.969-6.759-5.978-6.784-6.008c-0.123-0.146-0.104-0.365,0.042-0.489c0.147-0.123,0.365-0.104,0.488,0.042 c0.025,0.03,2.529,2.981,6.669,5.899c3.807,2.683,9.818,5.888,16.836,5.919c0.192,0.001,0.346,0.157,0.345,0.348 C399.362,304.856,399.207,305.01,399.016,305.01z"/>
          </g>
        </g>
        <g>
          <path style="fill:#4F60D9;" d="M391.506,307.459c-6.254,0-12.49-3.564-12.773-3.728c-0.166-0.096-0.222-0.308-0.126-0.474 c0.096-0.166,0.308-0.222,0.474-0.127c0.073,0.042,7.411,4.233,13.917,3.56c0.193-0.022,0.361,0.119,0.381,0.309 c0.02,0.19-0.119,0.361-0.309,0.381C392.549,307.434,392.027,307.459,391.506,307.459z"/>
        </g>
        <g>
          <path style="fill:#4F60D9;" d="M385.969,263.648c-0.163,0-0.309-0.116-0.34-0.282c-0.036-0.188,0.088-0.37,0.276-0.405 c8.786-1.667,11.435-7.319,11.46-7.376c0.079-0.174,0.284-0.252,0.459-0.173c0.174,0.079,0.252,0.284,0.173,0.459 c-0.111,0.246-2.826,6.038-11.963,7.772C386.012,263.646,385.99,263.648,385.969,263.648z"/>
        </g>
        <g>
          <path style="fill:#FFFFFF;" d="M388.172,252.819c-5.046,0.52-6.895-5.589-6.913-5.652c-0.039-0.133,0.037-0.271,0.17-0.31 c0.133-0.038,0.271,0.037,0.31,0.17c0.072,0.245,1.822,6.009,6.674,5.257c4.247-0.655,4.01-5.419,3.998-5.621 c-0.008-0.138,0.095-0.257,0.234-0.265c0.138-0.008,0.256,0.096,0.265,0.234c0.003,0.054,0.279,5.421-4.421,6.146 C388.382,252.795,388.276,252.808,388.172,252.819z"/>
        </g>
      </g>
      <g>
        <g>
          <path style="fill:#021147;" d="M377.889,232.443c0,0-4.153-7.099-0.651-12.58c3.502-5.481,10.94-4.964,12.867-4.533 c1.927,0.431,13.02,5.632,6.31,18.246L377.889,232.443z"/>
        </g>
        <g>
          <path style="fill:#FC8664;" d="M378.583,230.434c0,0-1.681-2.241-2.931-0.388c-1.25,1.853,0.517,7.327,3.577,5.991 L378.583,230.434z"/>
          <g>
            <path style="fill:#FD664D;" d="M378.561,234.345c-0.113,0-0.217-0.075-0.249-0.189c-0.474-1.69-2.225-2.375-2.243-2.382 c-0.133-0.051-0.2-0.2-0.15-0.333c0.051-0.133,0.2-0.201,0.333-0.15c0.082,0.031,2.011,0.78,2.557,2.726 c0.039,0.137-0.042,0.28-0.179,0.319C378.608,234.342,378.584,234.345,378.561,234.345z"/>
          </g>
          <g>
            <g>
              <g>
                <path style="fill:#FD664D;" d="M376.794,233.494c-0.048,0-0.096-0.013-0.14-0.041c-0.12-0.077-0.155-0.237-0.077-0.358 c0.013-0.02,0.323-0.492,0.971-0.782c0.13-0.059,0.283,0,0.342,0.13c0.058,0.13,0,0.283-0.13,0.342 c-0.501,0.224-0.745,0.587-0.747,0.59C376.962,233.452,376.879,233.494,376.794,233.494z"/>
              </g>
            </g>
          </g>
        </g>
        <g>
          <path style="fill:#FC8664;" d="M395.905,230.434c0,0,1.681-2.241,2.931-0.388c1.25,1.853-0.517,7.327-3.577,5.991 L395.905,230.434z"/>
          <g>
            <path style="fill:#FD664D;" d="M395.927,234.345c0.113,0,0.217-0.075,0.249-0.189c0.474-1.69,2.225-2.375,2.243-2.382 c0.133-0.051,0.201-0.2,0.15-0.333c-0.051-0.133-0.2-0.201-0.333-0.15c-0.082,0.031-2.011,0.78-2.557,2.726 c-0.039,0.137,0.042,0.28,0.179,0.319C395.88,234.342,395.904,234.345,395.927,234.345z"/>
          </g>
          <g>
            <g>
              <g>
                <path style="fill:#FD664D;" d="M397.694,233.494c0.048,0,0.097-0.013,0.14-0.041c0.12-0.077,0.155-0.237,0.077-0.358 c-0.013-0.02-0.323-0.492-0.971-0.782c-0.13-0.059-0.283,0-0.342,0.13c-0.058,0.13,0,0.283,0.13,0.342 c0.501,0.224,0.745,0.587,0.747,0.59C397.526,233.452,397.609,233.494,397.694,233.494z"/>
              </g>
            </g>
          </g>
        </g>
        <path style="fill:#FAB083;" d="M391.382,240.679v5.443c0,0-1.623,2.772-3.819,2.961c-2.193,0.191-4.142-2.387-4.142-2.387v-5.635 L391.382,240.679z"/>
        <path style="fill:#FC8664;" d="M391.382,240.679v2.415c-1.473,1.635-4.089,2.043-7.961,1.471v-3.504L391.382,240.679z"/>
        <path style="fill:#FAB083;" d="M397.121,226.7c-0.101,2.115-0.303,4.761-0.706,6.876c-0.101,0.528-0.215,1.024-0.341,1.469 c-1.146,4.011-4.011,10.89-12.033,8.024c-3.543-1.264-5.185-5.211-5.917-9.224c-0.496-2.726-0.572-5.48-0.535-7.447 c0.039-2.009,1.135-3.845,2.883-4.836c4.735-2.684,9.731-1.683,13.02-0.419C395.776,222.019,397.237,224.261,397.121,226.7z"/>
        <g>
          <path style="fill:#021147;" d="M385.082,218.95c0,0,10.585,16.978,12.045,10.751 C399.195,220.876,392.872,215.416,385.082,218.95z"/>
        </g>
        <g>
          <path style="fill:#021147;" d="M384.642,218.949c-7.044,0.052-10.548,8.056-7.281,9.004c4.546,1.319,8.488-5.116,9.701-7.348 C386.246,220.066,385.429,219.529,384.642,218.949z"/>
        </g>
        <g>
          <path style="fill:#021147;" d="M397.475,215.142c0,3.847-3.119,6.966-6.966,6.966c-3.847,0-6.966-3.119-6.966-6.966 c0-3.847,3.119-6.966,6.966-6.966C394.356,208.175,397.475,211.294,397.475,215.142z"/>
        </g>
        <g>
          <path style="fill:#021147;" d="M378.82,227.192c0,0,0.548,2.129-0.2,3.561c-0.748,1.432-0.337,3.886,0,6.644 c0,0-1.189-1.681-1.258-4.374c-0.069-2.694,0.371-4.935,0-6.012L378.82,227.192z"/>
        </g>
        <g>
          <path style="fill:#021147;" d="M395.452,227.192c0,0-0.548,2.129,0.2,3.561c0.748,1.432,0.337,3.886,0,6.644 c0,0,1.189-1.681,1.258-4.374c0.069-2.694-0.371-4.935,0-6.012L395.452,227.192z"/>
        </g>
        <g>
          <path style="fill:#021147;" d="M383.711,230.753c0,0.581-0.3,1.052-0.669,1.052c-0.369,0-0.669-0.471-0.669-1.052 c0-0.581,0.3-1.052,0.669-1.052C383.412,229.701,383.711,230.172,383.711,230.753z"/>
        </g>
        <g>
          <path style="fill:#021147;" d="M391.972,230.753c0,0.581-0.3,1.052-0.669,1.052c-0.369,0-0.669-0.471-0.669-1.052 c0-0.581,0.3-1.052,0.669-1.052C391.672,229.701,391.972,230.172,391.972,230.753z"/>
        </g>
        <g>
          <path style="fill:#021147;" d="M381.718,227.621c0.556-0.157,1.677-0.425,2.861-0.429c0.312-0.001,0.55,0.276,0.495,0.583 l-0.002,0.008c-0.044,0.245-0.263,0.418-0.511,0.406c-0.806-0.038-2.92,0.076-3.918,0.48c-0.021-0.174,0.082-0.364,0.228-0.532 C381.091,227.881,381.393,227.712,381.718,227.621z"/>
        </g>
        <g>
          <path style="fill:#021147;" d="M392.525,227.642c-0.556-0.157-1.678-0.425-2.861-0.429c-0.312-0.001-0.55,0.276-0.495,0.583 l0.001,0.008c0.044,0.245,0.263,0.418,0.511,0.406c0.805-0.038,2.92,0.076,3.918,0.48c0.02-0.174-0.082-0.364-0.228-0.532 C393.152,227.903,392.85,227.734,392.525,227.642z"/>
        </g>
        <g>
          <path style="fill:#FC8664;" d="M387.334,235.553c-0.198,0-0.397-0.035-0.562-0.134c-0.151-0.091-0.339-0.274-0.376-0.632 c-0.098-0.95,0.145-3.93,0.155-4.056c0.012-0.142,0.136-0.248,0.279-0.237c0.142,0.012,0.248,0.137,0.236,0.279 c-0.003,0.03-0.25,3.058-0.156,3.96c0.016,0.157,0.08,0.213,0.127,0.241c0.243,0.145,0.804-0.003,1.037-0.098 c0.132-0.054,0.283,0.01,0.337,0.142c0.054,0.132-0.009,0.283-0.141,0.337C388.203,235.384,387.77,235.553,387.334,235.553z"/>
        </g>
        <path style="fill:#FFFFFF;" d="M384.05,237.186c0.195,0.984,0.845,2.793,3.034,2.793c2.194,0,2.81-1.654,3.021-2.793H384.05z"/>
        <g>
          <path style="fill:#FC8664;" d="M387.053,241.489c-0.632,0-1.19-0.34-1.213-0.355c-0.121-0.075-0.159-0.234-0.084-0.356 c0.075-0.121,0.234-0.159,0.355-0.084l0,0c0.004,0.003,0.46,0.278,0.941,0.278c0.521,0,0.988-0.276,0.993-0.279 c0.122-0.074,0.281-0.034,0.355,0.088c0.073,0.122,0.035,0.28-0.087,0.354C388.29,241.15,387.722,241.489,387.053,241.489z"/>
        </g>
      </g>
      <path style="fill:#707FFF;" d="M331.009,243.371l-3.6,4.751c0,0,13.566,11.624,20.268,13.922 c6.703,2.298,22.252,4.429,22.252,4.429c1.131-3.89,0.604-7.785-0.653-11.682c0,0-16.008,0.379-20.607-1.941 C338.815,247.879,331.009,243.371,331.009,243.371z"/>
    </g>
    <g>
      <g>
        <g>
          <g>
            <g>
              <path style="fill:#DBE6F7;" d="M326.144,127.682c-0.09,0.009-0.183-0.003-0.272-0.04c-0.943-0.398-1.496-0.584-1.502-0.585 c-0.289-0.097-0.445-0.409-0.349-0.698c0.097-0.289,0.409-0.445,0.698-0.349c0.024,0.008,0.594,0.199,1.581,0.616 c0.281,0.118,0.412,0.442,0.294,0.723C326.514,127.539,326.338,127.661,326.144,127.682z"/>
            </g>
            <g>
              <path style="fill:#DBE6F7;" d="M354.267,157.279c0.375,1.001,0.727,2.034,1.045,3.069c0.079,0.257,0.328,0.414,0.585,0.387 c0.035-0.004,0.07-0.011,0.104-0.021c0.291-0.09,0.455-0.398,0.365-0.689c-0.324-1.057-0.683-2.11-1.066-3.132 c-0.107-0.285-0.424-0.43-0.71-0.323C354.304,156.676,354.16,156.994,354.267,157.279z"/>
              <path style="fill:#DBE6F7;" d="M356.171,163.475c0.253,1.037,0.482,2.104,0.679,3.173c0.053,0.285,0.316,0.478,0.6,0.448 c0.014-0.001,0.029-0.004,0.043-0.006c0.3-0.056,0.498-0.344,0.442-0.643c-0.202-1.089-0.435-2.176-0.692-3.233 c-0.072-0.296-0.371-0.477-0.667-0.405C356.281,162.88,356.099,163.179,356.171,163.475z"/>
              <path style="fill:#DBE6F7;" d="M357.83,169.234c-0.302,0.04-0.516,0.316-0.476,0.618c0.065,0.499,0.124,1.003,0.176,1.498 c0.061,0.571,0.114,1.155,0.159,1.733c0.024,0.304,0.289,0.531,0.593,0.507c0.005-0.001,0.01-0.001,0.015-0.002 c0.296-0.031,0.515-0.293,0.492-0.592c-0.046-0.588-0.101-1.182-0.162-1.763c-0.053-0.504-0.113-1.017-0.179-1.525 c-0.039-0.298-0.308-0.509-0.605-0.478C357.839,169.234,357.835,169.234,357.83,169.234z"/>
              <path style="fill:#DBE6F7;" d="M353.036,154.281c0.1,0.223,0.33,0.348,0.562,0.324c0.056-0.006,0.113-0.021,0.167-0.045 c0.278-0.124,0.403-0.451,0.279-0.729c-0.45-1.005-0.936-2.007-1.447-2.978c-0.142-0.27-0.475-0.373-0.746-0.232 c-0.269,0.142-0.373,0.476-0.231,0.745C352.119,152.317,352.596,153.298,353.036,154.281z"/>
              <path style="fill:#DBE6F7;" d="M328.803,129.012c0.948,0.484,1.904,1.011,2.842,1.567c0.106,0.063,0.225,0.086,0.339,0.074 c0.168-0.018,0.325-0.112,0.417-0.268c0.155-0.262,0.068-0.601-0.194-0.756c-0.958-0.567-1.935-1.106-2.903-1.6 c-0.271-0.138-0.604-0.031-0.742,0.24C328.424,128.541,328.532,128.874,328.803,129.012z"/>
              <path style="fill:#DBE6F7;" d="M337.027,134.209c0.117,0.089,0.258,0.124,0.393,0.11c0.146-0.015,0.285-0.088,0.38-0.214 c0.185-0.242,0.139-0.588-0.103-0.773c-0.874-0.667-1.779-1.317-2.69-1.931c-0.253-0.17-0.595-0.104-0.766,0.149 c-0.171,0.253-0.104,0.596,0.149,0.766C335.283,132.917,336.17,133.555,337.027,134.209z"/>
              <path style="fill:#DBE6F7;" d="M346.299,143.243c0.122,0.152,0.308,0.223,0.489,0.204c0.101-0.011,0.201-0.05,0.286-0.118 c0.238-0.19,0.277-0.538,0.086-0.776c-0.686-0.856-1.409-1.704-2.15-2.519c-0.205-0.225-0.554-0.242-0.78-0.037 c-0.226,0.205-0.242,0.554-0.037,0.779C344.919,141.575,345.627,142.405,346.299,143.243z"/>
              <path style="fill:#DBE6F7;" d="M341.94,138.445c0.122,0.119,0.286,0.17,0.443,0.153c0.124-0.013,0.244-0.068,0.337-0.164 c0.212-0.218,0.208-0.568-0.011-0.78c-0.785-0.764-1.606-1.516-2.442-2.236c-0.231-0.199-0.579-0.173-0.778,0.058 c-0.199,0.231-0.173,0.579,0.058,0.778C340.366,136.96,341.171,137.697,341.94,138.445z"/>
              <path style="fill:#DBE6F7;" d="M350.021,148.548c0.115,0.188,0.324,0.283,0.529,0.261c0.079-0.008,0.157-0.034,0.229-0.078 c0.26-0.159,0.342-0.499,0.183-0.759c-0.573-0.938-1.183-1.87-1.814-2.77c-0.175-0.249-0.519-0.31-0.769-0.135 c-0.249,0.175-0.31,0.519-0.135,0.769C348.862,146.717,349.46,147.63,350.021,148.548z"/>
            </g>
          </g>
          <g>
            <g>
              <rect x="303.854" y="110.381" transform="matrix(0.2558 -0.9667 0.9667 0.2558 113.7226 393.649)" style="fill:#4F60D9;" width="17.378" height="25.158"/>
              <g>
                <polygon style="fill:#1D38C8;" points="314.808,123.874 321.776,134.391 322.48,134.577 322.594,134.149 315.488,123.424 &#10;&#9;&#9;&#9;&#9;&#9;&#9;&#9;&#9;&#9;&#9;&#9;&#9;&#9;&#9;&#9;"/>
              </g>
              <g>
                <polygon style="fill:#1D38C8;" points="298.258,127.77 298.16,128.142 298.928,128.345 310.186,122.651 309.818,121.924 &#10;&#9;&#9;&#9;&#9;&#9;&#9;&#9;&#9;&#9;&#9;&#9;&#9;&#9;&#9;&#9;"/>
              </g>
              <polygon style="fill:#707FFF;" points="326.927,117.778 311.905,125.375 302.606,111.342 &#9;&#9;&#9;&#9;&#9;&#9;"/>
            </g>
          </g>
        </g>
      </g>
      <g>
        <g>
          <g>
            <g>
              <path style="fill:#707FFF;" d="M396.408,148.016c-3.353,0-6.081-2.728-6.081-6.081c0-3.353,2.728-6.081,6.081-6.081 c3.353,0,6.081,2.728,6.081,6.081C402.489,145.288,399.761,148.016,396.408,148.016z M396.408,137.762 c-2.301,0-4.173,1.872-4.173,4.173c0,2.301,1.872,4.173,4.173,4.173s4.173-1.872,4.173-4.173 C400.581,139.634,398.709,137.762,396.408,137.762z"/>
            </g>
            <g>
              <g>
                <g>
                  <path style="fill:#4F60D9;" d="M427.313,154.202c-3.353,0-6.081-2.728-6.081-6.081c0-3.353,2.728-6.081,6.081-6.081 s6.081,2.728,6.081,6.081C433.393,151.474,430.665,154.202,427.313,154.202z M427.313,143.948 c-2.301,0-4.173,1.872-4.173,4.173c0,2.301,1.872,4.173,4.173,4.173c2.301,0,4.173-1.872,4.173-4.173 C431.485,145.82,429.614,143.948,427.313,143.948z"/>
                </g>
              </g>
            </g>
            <g>
              <g>
                <g>
                  <path style="fill:#707FFF;" d="M441.956,166.617c-0.527,0-0.954-0.427-0.954-0.954v-4.206c0-0.527,0.427-0.954,0.954-0.954 c0.527,0,0.954,0.427,0.954,0.954v4.206C442.91,166.191,442.483,166.617,441.956,166.617z"/>
                </g>
                <g>
                  <path style="fill:#707FFF;" d="M441.956,173.978c-0.527,0-0.954-0.427-0.954-0.954v-4.206c0-0.527,0.427-0.954,0.954-0.954 c0.527,0,0.954,0.427,0.954,0.954v4.206C442.91,173.551,442.483,173.978,441.956,173.978z"/>
                </g>
              </g>
              <g>
                <g>
                  <path style="fill:#707FFF;" d="M447.86,168.195h-3.779c-0.527,0-0.954-0.427-0.954-0.954c0-0.527,0.427-0.954,0.954-0.954 h3.779c0.527,0,0.954,0.427,0.954,0.954C448.814,167.768,448.387,168.195,447.86,168.195z"/>
                </g>
                <g>
                  <path style="fill:#707FFF;" d="M439.831,168.195h-3.779c-0.527,0-0.954-0.427-0.954-0.954c0-0.527,0.427-0.954,0.954-0.954 h3.779c0.527,0,0.954,0.427,0.954,0.954C440.784,167.768,440.357,168.195,439.831,168.195z"/>
                </g>
              </g>
            </g>
            <g>
              <g>
                <g>
                  <g>
                    <g>
                      <path style="fill:#4F60D9;" d="M409.479,159.758c-0.527,0-0.954-0.427-0.954-0.954v-4.206 c0-0.527,0.427-0.954,0.954-0.954c0.527,0,0.954,0.427,0.954,0.954v4.206 C410.433,159.331,410.006,159.758,409.479,159.758z"/>
                    </g>
                  </g>
                  <g>
                    <g>
                      <path style="fill:#4F60D9;" d="M409.479,167.119c-0.527,0-0.954-0.427-0.954-0.954v-4.206 c0-0.527,0.427-0.954,0.954-0.954c0.527,0,0.954,0.427,0.954,0.954v4.206 C410.433,166.692,410.006,167.119,409.479,167.119z"/>
                    </g>
                  </g>
                </g>
                <g>
                  <g>
                    <g>
                      <path style="fill:#4F60D9;" d="M415.383,161.335h-3.779c-0.527,0-0.954-0.427-0.954-0.954 c0-0.527,0.427-0.954,0.954-0.954h3.779c0.527,0,0.954,0.427,0.954,0.954C416.337,160.909,415.91,161.335,415.383,161.335 z"/>
                    </g>
                  </g>
                  <g>
                    <g>
                      <path style="fill:#4F60D9;" d="M407.354,161.335h-3.779c-0.527,0-0.954-0.427-0.954-0.954 c0-0.527,0.427-0.954,0.954-0.954h3.779c0.527,0,0.954,0.427,0.954,0.954C408.307,160.909,407.88,161.335,407.354,161.335 z"/>
                    </g>
                  </g>
                </g>
              </g>
            </g>
          </g>
        </g>
      </g>
      <g>
        <g>
          <g>
            <g>
              <path style="fill:#707FFF;" d="M40.675,283.694c0,3.353-2.728,6.081-6.081,6.081c-3.353,0-6.081-2.728-6.081-6.081 c0-3.353,2.728-6.081,6.081-6.081C37.947,277.614,40.675,280.342,40.675,283.694z M30.421,283.694 c0,2.301,1.872,4.173,4.173,4.173c2.301,0,4.173-1.872,4.173-4.173c0-2.301-1.872-4.173-4.173-4.173 C32.293,279.521,30.421,281.393,30.421,283.694z"/>
            </g>
            <g>
              <g>
                <g>
                  <path style="fill:#4F60D9;" d="M46.861,252.79c0,3.353-2.728,6.081-6.081,6.081c-3.353,0-6.081-2.728-6.081-6.081 c0-3.353,2.728-6.081,6.081-6.081C44.133,246.709,46.861,249.437,46.861,252.79z M36.607,252.79 c0,2.301,1.872,4.173,4.173,4.173c2.301,0,4.173-1.872,4.173-4.173c0-2.301-1.872-4.173-4.173-4.173 C38.479,248.617,36.607,250.489,36.607,252.79z"/>
                </g>
              </g>
            </g>
            <g>
              <g>
                <g>
                  <path style="fill:#707FFF;" d="M59.276,238.146c0,0.527-0.427,0.954-0.954,0.954h-4.206c-0.527,0-0.954-0.427-0.954-0.954 c0-0.527,0.427-0.954,0.954-0.954h4.206C58.849,237.193,59.276,237.62,59.276,238.146z"/>
                </g>
                <g>
                  <path style="fill:#707FFF;" d="M66.637,238.146c0,0.527-0.427,0.954-0.954,0.954h-4.206c-0.527,0-0.954-0.427-0.954-0.954 c0-0.527,0.427-0.954,0.954-0.954h4.206C66.21,237.193,66.637,237.62,66.637,238.146z"/>
                </g>
              </g>
              <g>
                <g>
                  <path style="fill:#707FFF;" d="M60.854,232.242v3.779c0,0.527-0.427,0.954-0.954,0.954c-0.527,0-0.954-0.427-0.954-0.954 v-3.779c0-0.527,0.427-0.954,0.954-0.954C60.427,231.288,60.854,231.716,60.854,232.242z"/>
                </g>
                <g>
                  <path style="fill:#707FFF;" d="M60.854,240.272v3.779c0,0.527-0.427,0.954-0.954,0.954c-0.527,0-0.954-0.427-0.954-0.954 v-3.779c0-0.527,0.427-0.954,0.954-0.954C60.427,239.318,60.854,239.745,60.854,240.272z"/>
                </g>
              </g>
            </g>
            <g>
              <g>
                <g>
                  <g>
                    <g>
                      <path style="fill:#4F60D9;" d="M52.417,270.624c0,0.527-0.427,0.954-0.954,0.954h-4.206c-0.527,0-0.954-0.427-0.954-0.954 c0-0.527,0.427-0.954,0.954-0.954h4.206C51.99,269.67,52.417,270.097,52.417,270.624z"/>
                    </g>
                  </g>
                  <g>
                    <g>
                      <path style="fill:#4F60D9;" d="M59.778,270.624c0,0.527-0.427,0.954-0.954,0.954h-4.206c-0.527,0-0.954-0.427-0.954-0.954 c0-0.527,0.427-0.954,0.954-0.954h4.206C59.351,269.67,59.778,270.097,59.778,270.624z"/>
                    </g>
                  </g>
                </g>
                <g>
                  <g>
                    <g>
                      <path style="fill:#4F60D9;" d="M53.994,264.719v3.779c0,0.527-0.427,0.954-0.954,0.954c-0.527,0-0.954-0.427-0.954-0.954 v-3.779c0-0.527,0.427-0.954,0.954-0.954C53.568,263.765,53.994,264.193,53.994,264.719z"/>
                    </g>
                  </g>
                  <g>
                    <g>
                      <path style="fill:#4F60D9;" d="M53.994,272.749v3.779c0,0.527-0.427,0.954-0.954,0.954c-0.527,0-0.954-0.427-0.954-0.954 v-3.779c0-0.527,0.427-0.954,0.954-0.954C53.568,271.795,53.994,272.222,53.994,272.749z"/>
                    </g>
                  </g>
                </g>
              </g>
            </g>
          </g>
        </g>
      </g>
      <g>
        <g>
          <path style="fill:#707FFF;" d="M136.6,139.051v18.836c0,2.49,2.02,4.51,4.51,4.51h34.201l10.325,3.704 c1.06,0.381,2.075-0.661,1.669-1.71l-3.906-10.087v-15.254c0-2.49-2.02-4.51-4.512-4.51H141.11 C138.62,134.541,136.6,136.561,136.6,139.051z"/>
        </g>
        <g>
          <path style="fill:#4F60D9;" d="M166.312,149.005c0,1.802,1.461,3.263,3.262,3.263s3.263-1.461,3.263-3.263 c0-1.802-1.461-3.262-3.263-3.262S166.312,147.203,166.312,149.005z"/>
          <path style="fill:#4F60D9;" d="M155.984,149.005c0,1.802,1.461,3.263,3.262,3.263c1.802,0,3.262-1.461,3.262-3.263 c0-1.802-1.46-3.262-3.262-3.262C157.445,145.742,155.984,147.203,155.984,149.005z"/>
          <path style="fill:#4F60D9;" d="M145.657,149.005c0,1.802,1.461,3.263,3.263,3.263c1.802,0,3.263-1.461,3.263-3.263 c0-1.802-1.461-3.262-3.263-3.262C147.117,145.742,145.657,147.203,145.657,149.005z"/>
        </g>
      </g>
    </g>
  </g>
</svg>