<svg xmlns="http://www.w3.org/2000/svg" width="24" height="24" viewBox="0 0 24 24">
    <g fill="none" fill-rule="evenodd">
        <path d="M0 0h24v24H0z"/>
        <path fill="#EA4335" d="M12 7.86c1.268 0 2.123.547 2.61 1.005l1.905-1.86C15.345 5.918 13.822 5.25 12 5.25a6.745 6.745 0 0 0-6.03 3.72l2.183 1.695C8.7 9.038 10.214 7.86 12 7.86z"/>
        <path fill="#4285F4" d="M18.48 12.15c0-.555-.045-.96-.143-1.38H12v2.505h3.72c-.075.623-.48 1.56-1.38 2.19l2.13 1.65c1.275-1.177 2.01-2.91 2.01-4.965z"/>
        <path fill="#FBBC05" d="M8.16 13.335A4.155 4.155 0 0 1 7.935 12c0-.465.083-.915.218-1.335L5.97 8.97A6.756 6.756 0 0 0 5.25 12c0 1.087.263 2.115.72 3.03l2.19-1.695z"/>
        <path fill="#34A853" d="M12 18.75c1.822 0 3.352-.6 4.47-1.635l-2.13-1.65c-.57.398-1.335.675-2.34.675-1.785 0-3.3-1.178-3.84-2.805L5.977 15.03A6.734 6.734 0 0 0 12 18.75z"/>
        <path d="M5.25 5.25h13.5v13.5H5.25z"/>
    </g>
</svg>
