<?xml version="1.0" standalone="no"?>
<!DOCTYPE svg PUBLIC "-//W3C//DTD SVG 20010904//EN"
 "http://www.w3.org/TR/2001/REC-SVG-20010904/DTD/svg10.dtd">
<svg version="1.0" xmlns="http://www.w3.org/2000/svg"
 width="512.000000pt" height="512.000000pt" viewBox="0 0 512.000000 512.000000"
 preserveAspectRatio="xMidYMid meet">

<g transform="translate(0.000000,512.000000) scale(0.100000,-0.100000)"
fill="#ffffff" stroke="none">
<path d="M2330 5105 c-249 -32 -426 -87 -645 -197 -494 -249 -868 -711 -1005
-1243 -61 -238 -60 -194 -60 -1808 0 -1441 0 -1473 20 -1504 25 -41 59 -63
108 -70 33 -4 73 10 276 97 216 93 242 102 284 97 50 -5 67 -20 245 -219 88
-99 125 -117 196 -98 33 9 61 33 158 142 128 143 162 166 228 154 56 -11 88
-47 208 -241 106 -170 114 -180 158 -199 56 -23 105 -16 147 19 16 13 77 103
137 200 60 97 122 186 137 197 39 27 96 33 139 15 24 -10 72 -56 144 -140 183
-213 219 -212 415 13 122 140 149 160 212 160 16 0 134 -46 264 -101 256 -110
279 -115 342 -70 66 47 62 -60 62 1524 0 927 -4 1472 -10 1538 -46 448 -239
855 -559 1177 -283 284 -644 473 -1040 543 -152 26 -417 33 -561 14z m-140
-1400 c99 -50 160 -162 145 -269 -34 -258 -254 -493 -471 -504 -131 -7 -215
38 -272 146 -85 159 -51 355 82 480 50 46 85 67 185 111 67 30 137 57 154 62
48 12 124 1 177 -26z m1064 -33 c103 -45 141 -67 188 -110 135 -125 171 -325
86 -484 -57 -108 -141 -153 -272 -146 -217 11 -437 246 -471 504 -18 131 74
260 210 295 56 15 127 -1 259 -59z m-550 -1066 c70 -34 139 -110 166 -183 20
-54 21 -71 18 -392 -3 -325 -4 -337 -26 -382 -36 -74 -87 -125 -159 -161 -58
-28 -77 -33 -143 -33 -59 1 -87 6 -131 27 -76 35 -133 88 -166 156 l-28 57 -3
336 c-3 318 -2 338 18 391 35 93 118 173 215 205 64 21 173 11 239 -21z"/>
</g>
</svg>
