<?xml version="1.0" standalone="no"?>
<!DOCTYPE svg PUBLIC "-//W3C//DTD SVG 20010904//EN"
 "http://www.w3.org/TR/2001/REC-SVG-20010904/DTD/svg10.dtd">
<svg version="1.0" xmlns="http://www.w3.org/2000/svg"
 width="512.000000pt" height="512.000000pt" viewBox="0 0 512.000000 512.000000"
 preserveAspectRatio="xMidYMid meet">

<g transform="translate(0.000000,512.000000) scale(0.100000,-0.100000)"
fill="#ffffff" stroke="none">
<path d="M2368 4840 c-198 -36 -366 -133 -488 -282 -68 -83 -153 -259 -184
-378 -70 -276 -60 -592 30 -915 14 -49 30 -94 34 -99 6 -6 27 7 52 30 133 123
342 225 553 270 101 21 331 24 434 5 517 -94 853 -537 878 -1158 3 -84 10
-153 15 -153 15 0 165 79 279 146 271 161 472 353 641 614 261 402 307 815
126 1125 -87 149 -275 300 -454 364 -140 51 -228 64 -388 58 -167 -6 -268 -31
-410 -104 -59 -31 -91 -43 -94 -35 -11 33 -106 166 -160 224 -113 121 -291
224 -462 269 -94 24 -316 35 -402 19z"/>
<path d="M1010 4309 c-60 -24 -100 -85 -100 -151 1 -33 17 -75 73 -183 86
-168 109 -189 198 -183 65 5 109 32 133 82 31 65 22 109 -57 261 -67 130 -75
142 -117 163 -47 23 -89 27 -130 11z"/>
<path d="M920 3461 c-47 -15 -255 -123 -278 -145 -101 -91 -46 -258 90 -273
40 -5 59 2 179 62 74 36 145 76 158 88 97 89 44 251 -89 271 -19 3 -46 1 -60
-3z"/>
<path d="M2481 3269 c-164 -19 -345 -91 -471 -187 -89 -68 -187 -174 -244
-265 l-47 -76 -72 39 c-103 56 -239 98 -357 112 -377 44 -778 -160 -934 -474
-55 -111 -74 -189 -82 -323 -16 -277 103 -597 334 -895 88 -114 249 -272 349
-343 299 -213 738 -411 1226 -553 129 -37 183 -42 226 -20 38 20 251 243 384
403 264 316 461 627 557 875 134 346 156 788 55 1107 -74 232 -229 423 -419
516 -103 51 -173 71 -296 85 -95 11 -105 11 -209 -1z"/>
<path d="M4094 2011 c-148 -73 -164 -85 -189 -145 -34 -80 20 -183 107 -207
53 -14 66 -10 221 66 142 70 170 94 187 155 20 75 -14 149 -84 181 -66 30 -93
24 -242 -50z"/>
<path d="M3760 1308 c-48 -33 -72 -70 -77 -120 -5 -39 2 -59 65 -183 72 -143
96 -176 145 -194 68 -26 154 5 191 68 36 61 27 110 -43 251 -66 131 -89 163
-133 186 -42 22 -110 18 -148 -8z"/>
</g>
</svg>
