<svg xmlns="http://www.w3.org/2000/svg" fill="none" viewBox="0 0 22 30"><path fill="#fff" fill-rule="evenodd" d="M7.021 17.12.515 15.65 2.443 0H20.99v6.468H9.285l-.451 3.79c.17-.059.35-.12.542-.18.865-.286 1.806-.425 2.816-.425 1.525 0 2.902.223 4.119.687 1.227.45 2.276 1.121 3.135 2.016.86.885 1.496 1.965 1.914 3.225.432 1.259.641 2.677.641 4.246 0 1.292-.222 2.545-.666 3.756a9.417 9.417 0 0 1-2.023 3.28c-.912.974-2.058 1.74-3.421 2.305l-.006.002c-1.387.561-3.001.83-4.823.83-1.382 0-2.73-.205-4.04-.616a12.236 12.236 0 0 1-3.564-1.773l-.009-.007A9.163 9.163 0 0 1 .914 24.73l-.005-.009c-.625-1.157-.923-2.44-.908-3.835l.007-.688h8.244l.039.655c.035.599.18 1.086.412 1.482.235.399.54.701.92.92.39.205.849.316 1.397.316.58 0 .999-.111 1.301-.287.33-.193.592-.456.789-.804.213-.377.372-.821.468-1.34.1-.55.151-1.137.151-1.76 0-.647-.075-1.209-.216-1.693l-.002-.007-.002-.007a2.813 2.813 0 0 0-.581-1.143l-.008-.008a2.428 2.428 0 0 0-1.018-.702l-.005-.003c-.416-.164-.95-.258-1.624-.258-.912 0-1.54.152-1.951.387-.52.297-.841.57-1.018.801l-.283.372Zm7.27 4.141a4.96 4.96 0 0 1-.545 1.55 2.81 2.81 0 0 1-1.05 1.067c-.444.258-1.003.387-1.676.387-.66 0-1.245-.135-1.756-.407a3.205 3.205 0 0 1-1.191-1.182c-.296-.504-.465-1.098-.505-1.783H.724a8.579 8.579 0 0 0 .022.694 6.923 6.923 0 0 0 .806 2.814 8.46 8.46 0 0 0 2.342 2.656c.996.723 2.113 1.28 3.351 1.667a12.7 12.7 0 0 0 3.816.581c1.75 0 3.264-.258 4.542-.775 1.279-.53 2.336-1.24 3.17-2.132a8.732 8.732 0 0 0 1.878-3.044c.417-1.137.625-2.313.625-3.527 0-1.512-.201-2.856-.605-4.032-.39-1.176-.976-2.165-1.757-2.966-.78-.814-1.736-1.428-2.867-1.841-1.117-.427-2.402-.64-3.856-.64-.942 0-1.803.13-2.584.388-.33.105-.619.205-.866.298a5.915 5.915 0 0 0-.77.341l.667-5.602h11.629V.695H3.087L1.31 15.116l5.41 1.221c.256-.335.666-.665 1.232-.988.565-.323 1.339-.485 2.321-.485.74 0 1.373.104 1.898.31.539.207.976.51 1.313.912.336.387.578.859.726 1.415.162.555.242 1.182.242 1.88 0 .659-.053 1.285-.161 1.88Z" clip-rule="evenodd"/></svg>