<svg xmlns="http://www.w3.org/2000/svg" fill="none" viewBox="0 0 39 30"><path fill="#fff" fill-rule="evenodd" d="M15.165.402v29.215H7.107V9.27L.562 11.124V4.826L13.728.402h1.437ZM7.814 8.354v20.578h6.644V1.087h-.611L1.268 5.314v4.895l6.546-1.855Zm30.041 12.91c0 3.265-1.809 5.946-4.85 7.152-1.498.599-3.207.899-5.126.899-1.906 0-3.62-.3-5.145-.9-3.048-1.208-4.91-3.865-4.91-7.152 0-2.99 1.824-5.43 4.502-6.683-2.327-1.211-3.89-3.377-3.89-6.054 0-3.133 1.653-5.717 4.554-6.942 1.42-.599 3.036-.899 4.85-.899 1.84 0 3.47.3 4.89.9 2.893 1.22 4.534 3.82 4.534 6.941 0 2.663-1.555 4.863-3.877 6.067 2.687 1.244 4.468 3.66 4.468 6.67ZM27.84 5.657c1.864 0 2.78 1.482 2.78 3.213 0 1.71-.856 3.327-2.74 3.327-1.893 0-2.78-1.602-2.78-3.327 0-1.718.878-3.213 2.74-3.213Zm.04 5.855c1.502 0 2.033-1.334 2.033-2.642 0-1.367-.6-2.528-2.073-2.528-1.497 0-2.034 1.213-2.034 2.528 0 1.334.576 2.642 2.073 2.642Zm6.899 3.045c2.362 1.467 3.783 3.902 3.783 6.705 0 3.545-1.99 6.479-5.288 7.787-1.598.639-3.4.95-5.395.95-1.982 0-3.79-.312-5.41-.949h-.003c-3.306-1.311-5.348-4.221-5.348-7.788 0-2.827 1.42-5.22 3.82-6.715-2.008-1.4-3.209-3.524-3.209-6.022 0-3.462 1.779-6.22 4.979-7.57C24.23.313 25.945 0 27.84 0c1.919 0 3.648.313 5.171.956 3.144 1.327 4.96 4.176 4.96 7.57 0 2.447-1.204 4.64-3.192 6.032Zm-6.94 3.298c-1.71 0-2.644 1.304-2.644 2.89 0 1.637.987 2.91 2.684 2.91 1.725 0 2.586-1.319 2.586-2.91 0-1.585-.857-2.89-2.625-2.89Zm-3.35 2.89c0-1.976 1.255-3.575 3.35-3.575 2.1 0 3.333 1.599 3.333 3.576 0 1.989-1.216 3.595-3.293 3.595-2.076 0-3.39-1.576-3.39-3.595Z" clip-rule="evenodd"/></svg>