<svg xmlns="http://www.w3.org/2000/svg" fill="none" viewBox="0 0 22 30"><path fill="#fff" fill-rule="evenodd" d="M22 23.575V30H.59v-5.233l9.396-9.721c.796-.898 1.43-1.69 1.905-2.38.478-.707.808-1.322 1.006-1.849l.005-.012c.214-.539.306-.987.306-1.355 0-.749-.116-1.322-.312-1.748l-.004-.009-.004-.009c-.185-.435-.447-.735-.78-.935l-.007-.004c-.321-.199-.754-.32-1.337-.32-.537 0-.98.149-1.361.437-.4.304-.731.729-.98 1.304-.234.575-.359 1.239-.359 2v.695H0v-.694C0 8.318.457 6.614 1.376 5.07l.003-.004c.93-1.541 2.222-2.768 3.86-3.677C6.893.456 8.795 0 10.92 0c2.181 0 4.06.333 5.609 1.032 1.549.699 2.74 1.727 3.542 3.088.811 1.342 1.2 2.935 1.2 4.749 0 1.056-.17 2.075-.51 3.053a12.768 12.768 0 0 1-1.435 2.847l-.003.004a23.906 23.906 0 0 1-2.228 2.792 64.598 64.598 0 0 1-2.884 2.976l-2.671 3.034H22Zm-12.004.694h11.298v5.037H1.296v-4.262l9.212-9.53c.814-.918 1.47-1.738 1.968-2.46.499-.737.86-1.402 1.083-1.996.236-.594.354-1.13.354-1.608 0-.813-.124-1.491-.374-2.034-.236-.555-.59-.975-1.063-1.259-.459-.284-1.03-.426-1.712-.426-.683 0-1.28.194-1.791.581-.512.387-.912.917-1.201 1.588-.276.672-.413 1.427-.413 2.267H.705c0-.234.008-.466.024-.694A9.013 9.013 0 0 1 1.985 5.42c.866-1.434 2.067-2.577 3.602-3.429C7.122 1.127 8.9.694 10.921.694c2.113 0 3.885.323 5.315.969 1.43.646 2.506 1.582 3.228 2.809.735 1.214 1.102 2.68 1.102 4.397 0 .981-.157 1.924-.472 2.828a12.073 12.073 0 0 1-1.358 2.693 23.21 23.21 0 0 1-2.166 2.712c-.84.93-1.797 1.918-2.873 2.964l-3.7 4.203Z" clip-rule="evenodd"/></svg>