<svg xmlns="http://www.w3.org/2000/svg" fill="none" viewBox="0 0 38 30"><path fill="#fff" fill-rule="evenodd" d="M14.565.402v29.215H6.529V9.27L0 11.124V4.826L13.132.402h1.433ZM7.233 8.354v20.578h6.627V1.087h-.61L.706 5.314v4.895l6.528-1.855Zm15.415 3.274h3.93c.749 0 1.295-.128 1.684-.335.414-.226.71-.531.906-.922.207-.425.324-.95.324-1.596 0-.459-.101-.867-.296-1.236l-.004-.007-.003-.006a1.947 1.947 0 0 0-.82-.835l-.012-.007c-.358-.21-.857-.34-1.543-.34-.421 0-.834.086-1.246.265l-.007.003-.007.003c-.398.162-.715.39-.966.68-.2.247-.314.554-.314.964v.685h-8.056V8.26c0-1.715.487-3.218 1.485-4.474.985-1.236 2.272-2.172 3.842-2.813C23.118.322 24.805 0 26.598 0c2.103 0 3.979.316 5.614.968 1.643.643 2.95 1.612 3.889 2.917.965 1.31 1.427 2.91 1.427 4.756a6.217 6.217 0 0 1-.77 3.018c-.508.931-1.216 1.742-2.112 2.434-.21.161-.426.315-.651.46.375.194.73.411 1.064.651a6.944 6.944 0 0 1 2.18 2.522c.514 1.002.761 2.136.761 3.384 0 1.395-.289 2.664-.884 3.794a8.124 8.124 0 0 1-2.468 2.819c-1.045.755-2.256 1.324-3.624 1.714l-.007.002c-1.367.376-2.842.561-4.42.561-1.255 0-2.508-.161-3.758-.482l-.007-.001a11.752 11.752 0 0 1-3.474-1.548l-.005-.004a8.482 8.482 0 0 1-2.589-2.746l-.005-.008c-.659-1.154-.973-2.504-.973-4.024V20.5h8.056v.686c0 .45.122.852.37 1.22.27.371.63.673 1.094.904.461.23.96.346 1.508.346.726 0 1.293-.131 1.73-.358.472-.25.81-.572 1.041-.962.237-.4.359-.848.359-1.36 0-.877-.154-1.498-.4-1.919l-.006-.01a2.062 2.062 0 0 0-1.053-.922l-.005-.002c-.492-.208-1.119-.325-1.902-.325h-3.93v-6.171Zm.705 5.485h3.225c.852 0 1.58.128 2.183.383a2.76 2.76 0 0 1 1.396 1.224c.328.56.492 1.313.492 2.256a3.28 3.28 0 0 1-.453 1.702c-.301.51-.74.918-1.317 1.224-.564.294-1.252.44-2.065.44-.655 0-1.265-.14-1.829-.42a3.638 3.638 0 0 1-1.356-1.129 2.805 2.805 0 0 1-.492-1.606H16.49c0 .233.008.462.024.685.08 1.14.368 2.142.861 3.006a7.79 7.79 0 0 0 2.38 2.524c.983.65 2.071 1.135 3.264 1.454 1.193.306 2.386.459 3.579.459 1.52 0 2.93-.179 4.228-.536 1.297-.37 2.431-.905 3.402-1.606a7.434 7.434 0 0 0 2.261-2.582c.538-1.02.806-2.18.806-3.48 0-1.161-.23-2.187-.688-3.08a6.255 6.255 0 0 0-1.966-2.276 8.111 8.111 0 0 0-1.36-.784 9.557 9.557 0 0 0-.861-.344c.285-.13.56-.272.822-.424.341-.197.663-.413.966-.647.826-.637 1.468-1.377 1.927-2.218.459-.842.688-1.74.688-2.697 0-1.734-.432-3.187-1.297-4.36-.853-1.186-2.046-2.078-3.58-2.678C30.414.991 28.63.685 26.599.685c-1.704 0-3.297.306-4.778.918-1.469.6-2.655 1.467-3.56 2.601-.76.957-1.196 2.08-1.308 3.37-.02.223-.029.451-.029.685h6.647c0-.549.157-1.014.471-1.396.328-.383.741-.676 1.24-.88a3.808 3.808 0 0 1 1.533-.325c.774 0 1.41.146 1.908.44.498.28.865.656 1.1 1.128.25.472.374.988.374 1.549 0 .727-.13 1.358-.393 1.893-.262.523-.662.931-1.2 1.224-.524.28-1.199.421-2.025.421h-3.225v4.8Z" clip-rule="evenodd"/></svg>