<svg xmlns="http://www.w3.org/2000/svg" fill="none" viewBox="0 0 22 30"><path fill="#fff" fill-rule="evenodd" d="M21.275 21.263c0 5.665-5.23 8.052-10.234 8.052-4.993 0-10.316-2.379-10.316-8.052 0-3.024 1.957-5.47 4.618-6.683-2.355-1.195-3.991-3.345-3.991-6.054 0-5.374 4.812-7.84 9.648-7.84 4.85 0 9.668 2.442 9.668 7.84 0 2.694-1.626 4.879-3.976 6.067 2.66 1.2 4.583 3.673 4.583 6.67ZM11 5.658c1.88 0 2.852 1.445 2.852 3.213 0 1.747-.91 3.327-2.812 3.327-1.908 0-2.851-1.565-2.851-3.327 0-1.754.934-3.213 2.811-3.213Zm.04 5.855c1.518 0 2.087-1.304 2.087-2.642 0-1.398-.642-2.528-2.127-2.528-1.511 0-2.087 1.184-2.087 2.528 0 1.364.616 2.642 2.127 2.642Zm7.079 3.045C20.514 16.008 22 18.431 22 21.263 22 27.328 16.427 30 11.04 30 5.712 30 0 27.415 0 21.263c0-2.812 1.55-5.277 3.919-6.715C1.881 13.163.627 11.05.627 8.526.627 2.777 5.697 0 11 0c5.23 0 10.393 2.73 10.393 8.526 0 2.47-1.257 4.655-3.274 6.032ZM11 17.856c-1.716 0-2.714 1.231-2.714 2.89 0 1.67 1.046 2.91 2.755 2.91 1.738 0 2.652-1.285 2.652-2.91 0-1.645-.94-2.89-2.693-2.89Zm-3.439 2.89c0-2.05 1.342-3.575 3.439-3.575 2.1 0 3.418 1.527 3.418 3.576 0 2.03-1.286 3.595-3.377 3.595-2.09 0-3.48-1.535-3.48-3.595Z" clip-rule="evenodd"/></svg>