<svg xmlns="http://www.w3.org/2000/svg" fill="none" viewBox="0 0 39 30"><path fill="#fff" fill-rule="evenodd" d="M15.203 29.617V.402h-1.441L.562 4.826v6.298l6.562-1.855v20.348h8.079Zm-7.37-.685V8.354L1.27 10.21V5.314l12.611-4.227h.613v27.845H7.833ZM31.518 13.475v-.117c0-2.038 0-4.026-.477-5.49-.243-.747-.62-1.391-1.214-1.839-.597-.45-1.375-.671-2.358-.643-.91.025-1.618.45-2.135 1.083-.51.623-.836 1.451-1.018 2.321-.363 1.73-.18 3.76.442 4.97.648 1.26 2.026 1.912 3.372 1.904 1.355-.007 2.73-.683 3.36-2.125l.028-.064ZM27.49 6.07c.859-.025 1.463.168 1.902.5.443.333.757.837.974 1.503.435 1.337.444 3.193.444 5.26-.515 1.11-1.587 1.639-2.684 1.645-1.126.006-2.227-.539-2.734-1.525-.533-1.037-.723-2.902-.382-4.527.169-.808.463-1.523.88-2.034.41-.502.935-.803 1.6-.822Z" clip-rule="evenodd"/><path fill="#fff" fill-rule="evenodd" d="M22.574 23.466H21.47V30h1.222c1.76 0 3.431-.211 5.013-.637a15.393 15.393 0 0 0 4.373-1.906h.001a13.711 13.711 0 0 0 3.457-3.184l.002-.002c.975-1.28 1.72-2.755 2.242-4.415.524-1.669.782-3.523.782-5.554v-2.218c0-1.887-.273-3.587-.833-5.09-.554-1.49-1.325-2.764-2.32-3.809A9.909 9.909 0 0 0 31.966.821 10.668 10.668 0 0 0 27.792 0c-1.552 0-2.994.278-4.318.842a10.438 10.438 0 0 0-3.41 2.316 10.24 10.24 0 0 0-2.221 3.377 10.767 10.767 0 0 0-.78 4.095c0 1.475.198 2.834.606 4.071l.003.009c.421 1.223 1.03 2.292 1.835 3.195a8.169 8.169 0 0 0 2.918 2.092h.003c1.155.49 2.433.728 3.822.728a7.527 7.527 0 0 0 3.059-.635c.212-.092.42-.19.621-.297l-.025.06-.002.005c-.354.846-.86 1.52-1.511 2.04-.665.52-1.477.913-2.448 1.171-.982.262-2.103.397-3.37.397Zm9.112 3.42a14.676 14.676 0 0 1-4.17 1.817 18.392 18.392 0 0 1-4.824.612h-.514V24.15h.396c1.318 0 2.504-.14 3.558-.42 1.054-.281 1.957-.715 2.708-1.301.75-.6 1.324-1.37 1.72-2.314.12-.28.221-.578.306-.892.088-.327.157-.674.208-1.038a7.8 7.8 0 0 1-.833.625 8.24 8.24 0 0 1-1.223.654 6.798 6.798 0 0 1-2.768.574c-1.304 0-2.484-.223-3.538-.67a7.46 7.46 0 0 1-2.668-1.912c-.738-.828-1.305-1.816-1.7-2.964-.382-1.16-.574-2.448-.574-3.863 0-1.364.244-2.645.732-3.844a9.558 9.558 0 0 1 2.075-3.155A9.729 9.729 0 0 1 23.76 1.47c1.225-.523 2.57-.785 4.032-.785a9.94 9.94 0 0 1 3.894.765 9.201 9.201 0 0 1 3.202 2.2c.923.969 1.648 2.16 2.175 3.576.527 1.415.79 3.034.79 4.858v2.218c0 1.976-.25 3.761-.75 5.355-.502 1.593-1.213 2.996-2.136 4.207a13.013 13.013 0 0 1-3.28 3.022Z" clip-rule="evenodd"/></svg>