<svg xmlns="http://www.w3.org/2000/svg" fill="none" viewBox="0 0 38 30"><path fill="#fff" fill-rule="evenodd" d="M14.408 0v30h-7.95V9.105L0 11.01V4.543L12.99 0h1.418ZM7.156 8.166v21.13h6.555V.704h-.603L.698 5.044v5.027l6.458-1.905ZM38 17.42v6.513h-2.86V30h-7.95v-6.068H16.283l-.473-4.918L27.19.534V0h7.95v17.419H38Zm-3.557.703h2.86v5.106h-2.86v6.068h-6.555v-6.068H16.916l-.389-4.045L27.887.735V.704h6.556v17.418Zm-6.555 0H22.79l4.669-8.13.428-.707v8.837Zm-.698-.703v-5.554l-3.189 5.554h3.19Z" clip-rule="evenodd"/></svg>