<svg xmlns="http://www.w3.org/2000/svg" fill="none" viewBox="0 0 38 30"><path fill="#fff" fill-rule="evenodd" d="M14.565.407V30H6.529V9.388L0 11.268v-6.38L13.132.407h1.433ZM7.233 8.462v20.844h6.627V1.1h-.61L.706 5.382v4.96l6.528-1.88ZM38 23.575V30H16.612v-5.233l9.386-9.721c.795-.898 1.428-1.69 1.903-2.38.478-.707.807-1.322 1.005-1.849l.005-.012c.214-.539.305-.987.305-1.355 0-.749-.115-1.322-.31-1.748l-.005-.009-.004-.009c-.185-.435-.447-.735-.779-.935l-.007-.004c-.321-.199-.753-.32-1.336-.32-.536 0-.98.149-1.36.437-.4.304-.73.729-.978 1.304-.235.575-.36 1.239-.36 2v.695h-8.055v-.694c0-1.849.456-3.553 1.374-5.097l.003-.004c.93-1.541 2.22-2.768 3.856-3.677C22.909.456 24.809 0 26.932 0c2.18 0 4.056.333 5.603 1.032 1.548.699 2.738 1.727 3.54 3.088.81 1.342 1.197 2.935 1.197 4.749 0 1.056-.17 2.075-.51 3.053a12.77 12.77 0 0 1-1.433 2.847l-.002.004a23.896 23.896 0 0 1-2.226 2.792 64.505 64.505 0 0 1-2.881 2.976l-2.669 3.034H38Zm-11.992.694h11.287v5.037H17.316v-4.262l9.203-9.53c.813-.918 1.469-1.738 1.967-2.46.498-.737.858-1.402 1.081-1.996.236-.594.354-1.13.354-1.608 0-.813-.124-1.491-.373-2.034-.236-.555-.59-.975-1.062-1.259-.46-.284-1.03-.426-1.711-.426-.682 0-1.278.194-1.79.581-.51.387-.91.917-1.2 1.588-.274.672-.412 1.427-.412 2.267h-6.647c0-.234.008-.466.024-.694a9.02 9.02 0 0 1 1.255-4.052c.865-1.434 2.064-2.577 3.598-3.429 1.534-.865 3.31-1.298 5.33-1.298 2.11 0 3.88.323 5.309.969 1.428.646 2.503 1.582 3.225 2.809.734 1.214 1.1 2.68 1.1 4.397 0 .981-.157 1.924-.471 2.828a12.08 12.08 0 0 1-1.357 2.693 23.2 23.2 0 0 1-2.163 2.712 63.901 63.901 0 0 1-2.871 2.964l-3.697 4.203Z" clip-rule="evenodd"/></svg>