<svg xmlns="http://www.w3.org/2000/svg" fill="none" viewBox="0 0 22 30"><path fill="#fff" fill-rule="evenodd" d="M4.51 23.466c1.54 0 3.076-.006 4.579-.397 1.809-.47 3.335-1.517 4.079-3.276a8.233 8.233 0 0 1-3.766.932c-2.603 0-5.119-.865-6.9-2.82C.682 15.909 0 13.279 0 10.63 0 7.84 1.08 5.126 3.072 3.158 5.162 1.067 8.044 0 10.98 0c2.904 0 5.756 1.093 7.794 3.185C21.075 5.547 22 8.852 22 12.084v2.218c0 2.032-.263 3.885-.8 5.554-1.019 3.17-3.01 5.82-5.833 7.6l-.002.001C12.069 29.524 8.315 30 4.511 30v-6.534Zm10.454 3.42c2.666-1.68 4.58-4.238 5.542-7.23.513-1.593.77-3.378.77-5.354v-2.218c0-3.057-.856-6.198-3.035-8.434C16.341 1.7 13.686.685 10.98.685c-2.742 0-5.431.991-7.383 2.946C1.73 5.474.725 8.016.725 10.63c0 2.464.633 4.968 2.326 6.826 1.628 1.788 3.972 2.582 6.351 2.582 1.454 0 2.861-.45 4.083-1.228.3-.19.584-.4.853-.625a8.22 8.22 0 0 1-.213 1.038c-.666 2.415-2.354 3.859-4.844 4.506-1.325.345-2.683.421-4.046.421v5.164c3.4 0 6.805-.596 9.73-2.43Zm-.526-13.308c0-.953.011-1.906 0-2.859-.022-1.71-.356-2.95-.95-3.78-.624-.872-1.496-1.281-2.569-1.281-1.06 0-1.883.6-2.488 1.587-.603 1.005-.87 2.22-.87 3.385 0 1.191.228 2.406.91 3.404.628.851 1.565 1.358 2.792 1.358 1.334 0 2.563-.627 3.175-1.814Zm-.724-.168v-2.512c0-1.169-.116-2.582-.827-3.575-.468-.655-1.168-.98-1.968-.98-.834 0-1.444.566-1.859 1.243-.536.895-.774 2.01-.774 3.044 0 1.053.186 2.136.787 3.022.528.709 1.316 1.055 2.19 1.055.997 0 1.939-.425 2.45-1.297Z" clip-rule="evenodd"/></svg>