<svg xmlns="http://www.w3.org/2000/svg" fill="none" viewBox="0 0 38 30"><path fill="#fff" fill-rule="evenodd" d="M14.603.383v29.234H6.545V9.255L0 11.112V4.809L13.166.383h1.437ZM7.253 8.34v20.591h6.643V1.07h-.611L.707 5.298v4.899L7.252 8.34Zm11.261 17.181c-1.495-2.354-1.938-5.237-1.938-7.976v-5.09c0-4.74 1.55-9.826 6.4-11.698C24.29.249 25.726 0 27.277 0c1.244 0 2.412.16 3.498.489C35.99 1.985 38 7.423 38 12.455v5.09c0 3.284-.66 6.859-2.958 9.354C33.067 29.072 30.2 30 27.317 30c-3.615 0-6.864-1.427-8.803-4.479Zm16 .923c2.181-2.367 2.78-5.789 2.78-8.899v-5.09c0-4.718-1.803-9.901-6.723-11.31-1.013-.306-2.11-.46-3.293-.46-1.472 0-2.82.237-4.042.709-4.526 1.748-5.954 6.61-5.954 11.06v5.091c0 3.2.645 5.745 1.834 7.616 1.8 2.835 4.888 4.153 8.201 4.153 2.683 0 5.357-.845 7.197-2.87ZM29.79 9.389c-.086-.623-.218-1.123-.385-1.512l-.004-.007-.003-.008c-.159-.397-.345-.684-.542-.885l-.006-.006-.005-.005a1.7 1.7 0 0 0-.67-.451l-.015-.005-.015-.006c-.244-.1-.53-.157-.868-.157-.422 0-.78.086-1.088.245l-.007.004c-.27.136-.53.369-.766.743-.231.367-.432.893-.58 1.609-.133.71-.204 1.602-.204 2.684v6.698c0 .881.045 1.639.131 2.276.099.622.232 1.134.39 1.546.172.396.365.695.57.915.424.427 1.004.586 1.593.586.77 0 1.41-.317 1.823-.973l.002-.005c.241-.376.441-.905.576-1.618l.001-.008c.146-.721.224-1.624.224-2.72v-6.697c0-.869-.052-1.61-.15-2.23l-.002-.013Zm-4.583 14.146c-.276-.294-.513-.67-.71-1.13-.184-.471-.328-1.039-.434-1.702a17.836 17.836 0 0 1-.137-2.373v-6.698c0-1.11.072-2.048.216-2.813.158-.766.381-1.378.67-1.837.29-.46.638-.791 1.046-.995.42-.217.893-.326 1.419-.326.42 0 .802.07 1.144.21.354.128.67.339.946.632.276.281.506.651.69 1.11.197.46.342 1.02.434 1.684a15.1 15.1 0 0 1 .157 2.335v6.698c0 1.122-.079 2.073-.236 2.851-.145.766-.368 1.384-.67 1.856-.579.919-1.4 1.302-2.425 1.302-.842 0-1.558-.243-2.11-.804Z" clip-rule="evenodd"/></svg>