<svg xmlns="http://www.w3.org/2000/svg" fill="none" viewBox="0 0 39 30"><path fill="#fff" fill-rule="evenodd" d="M14.955.402v29.215H7.014V9.27L.562 11.124V4.826L13.539.402h1.416ZM7.71 8.354v20.578h6.549V1.087h-.603L1.258 5.314v4.895L7.71 8.354ZM34.17 0v6.439c-1.482 0-2.94.037-4.371.484a7.558 7.558 0 0 0-2.634 1.435 6.363 6.363 0 0 0-1.635 2.146c1.33-.725 2.818-1.037 4.329-1.037 2.517 0 4.914 1.01 6.478 3.02 1.61 2.033 2.225 4.674 2.225 7.227C38.562 25.5 33.767 30 27.974 30c-4.707 0-8.639-2.605-10.29-6.927l-.003-.005c-.88-2.362-.82-4.837-.82-7.313 0-2.458.408-4.673 1.24-6.632l.001-.004a14.894 14.894 0 0 1 8.417-8.06C29.007.12 31.55 0 34.17 0ZM18.743 9.387c-.79 1.861-1.185 3.984-1.185 6.368 0 2.393-.074 4.794.777 7.076 1.543 4.038 5.304 6.484 9.639 6.484 5.418 0 9.891-4.19 9.891-9.6 0-2.4-.564-4.896-2.079-6.81-1.432-1.842-3.623-2.753-5.927-2.753-2.067 0-4.11.664-5.6 2.135.292-1.71 1.11-3.317 2.452-4.45a8.257 8.257 0 0 1 2.876-1.567c1.265-.396 2.568-.517 3.886-.517V.685c-2.297 0-4.531.193-6.704 1.014a14.198 14.198 0 0 0-8.026 7.688Zm5.364 7.709c0 1.427-.096 2.9.233 4.301.411 1.754 1.603 2.945 3.459 2.945 1.01 0 1.885-.478 2.507-1.32 1.094-1.421 1.247-3.568.719-5.24-.493-1.557-1.783-2.696-3.46-2.696-1.425 0-2.822.695-3.458 2.01Zm3.692 6.56c.796 0 1.439-.354 1.944-1.037l.008-.01c.959-1.247 1.07-3.164.609-4.623-.402-1.27-1.419-2.215-2.794-2.215-1.131 0-2.19.485-2.763 1.49 0 1.323-.088 2.685.216 3.982.338 1.444 1.244 2.414 2.78 2.414Z" clip-rule="evenodd"/></svg>