<svg xmlns="http://www.w3.org/2000/svg" fill="none" viewBox="0 0 38 30"><path fill="#fff" fill-rule="evenodd" d="M14.73 29.478V0h-1.45L0 4.464v6.354l6.602-1.871v20.531h8.127Zm-7.415-.691V8.024L.713 9.896v-4.94L13.4.692h.617v28.095H7.315ZM16.837 15.716l6.409 1.461.279-.37c.173-.23.489-.501 1.002-.797.405-.235 1.024-.386 1.922-.386.663 0 1.19.094 1.599.257l.006.003c.426.165.754.4 1.002.699l.008.008c.255.297.45.67.573 1.137l.002.008.002.007c.138.482.212 1.041.212 1.686 0 .62-.05 1.203-.148 1.752a4.298 4.298 0 0 1-.462 1.333 2.086 2.086 0 0 1-.777.8c-.297.175-.71.286-1.281.286-.54 0-.992-.11-1.375-.314a2.474 2.474 0 0 1-.908-.917c-.229-.394-.371-.879-.406-1.474l-.038-.653h-8.12l-.008.685c-.014 1.388.28 2.666.896 3.818l.005.009a9.093 9.093 0 0 0 2.495 2.861l.009.007a12 12 0 0 0 3.51 1.765c1.291.409 2.619.613 3.98.613 1.794 0 3.384-.268 4.75-.826l.007-.002c1.342-.563 2.47-1.326 3.37-2.295a9.395 9.395 0 0 0 1.992-3.265c.437-1.205.656-2.453.656-3.74 0-1.56-.206-2.973-.631-4.226-.413-1.254-1.038-2.33-1.886-3.21-.846-.89-1.88-1.56-3.088-2.007-1.198-.461-2.555-.684-4.057-.684-.994 0-1.921.138-2.774.423-.188.06-.366.12-.534.18l.444-3.773h11.532V.135h-18.27l-1.899 15.58Zm13.033 7.128c.252-.45.43-.965.537-1.544.106-.591.159-1.215.159-1.871 0-.695-.08-1.319-.239-1.872a3.492 3.492 0 0 0-.716-1.409 3.102 3.102 0 0 0-1.293-.906c-.517-.206-1.14-.31-1.869-.31-.968 0-1.73.162-2.287.483-.556.322-.96.65-1.213.984l-5.33-1.215L19.37.827h16.924v5.056H24.838l-.656 5.577c.181-.103.434-.216.758-.34.243-.093.528-.192.853-.297.769-.258 1.617-.386 2.545-.386 1.432 0 2.698.212 3.799.637 1.113.411 2.055 1.022 2.824 1.833.769.797 1.345 1.781 1.73 2.952.397 1.17.596 2.508.596 4.014 0 1.209-.205 2.38-.616 3.511a8.707 8.707 0 0 1-1.85 3.03c-.822.888-1.862 1.595-3.122 2.123-1.26.514-2.75.771-4.474.771-1.286 0-2.539-.192-3.759-.578a11.282 11.282 0 0 1-3.3-1.66 8.396 8.396 0 0 1-2.308-2.643 6.945 6.945 0 0 1-.794-2.802 8.152 8.152 0 0 1-.021-.691h6.741c.04.682.206 1.273.498 1.775.291.502.682.894 1.173 1.177.504.27 1.08.405 1.73.405.663 0 1.213-.128 1.65-.386a2.785 2.785 0 0 0 1.035-1.06Z" clip-rule="evenodd"/></svg>