<svg xmlns="http://www.w3.org/2000/svg" fill="none" viewBox="0 0 22 30"><path fill="#fff" fill-rule="evenodd" d="M17.547 0v6.439c-2.52 0-5.078.23-7.101 1.919a6.374 6.374 0 0 0-1.657 2.146c3.534-1.901 8.406-1.252 10.956 1.983C21.37 14.514 22 17.156 22 19.714c0 2.739-1.05 5.415-3.024 7.331C16.919 29.042 14.104 30 11.266 30c-3.022 0-5.89-.997-8.052-3.152l-.006-.007C.205 23.764 0 19.834 0 15.755c0-2.458.413-4.673 1.256-6.632l.002-.004c.849-1.94 2.005-3.594 3.473-4.952C7.72 1.4 11.728 0 15.778 0h1.77ZM5.217 4.663c-1.392 1.288-2.495 2.863-3.31 4.724-.8 1.861-1.2 3.984-1.2 6.368 0 3.843.156 7.687 3.013 10.614 2.01 2.004 4.737 2.946 7.546 2.946 2.653 0 5.286-.886 7.21-2.754 1.845-1.79 2.818-4.29 2.818-6.847 0-2.405-.577-4.901-2.108-6.808-2.762-3.506-8.54-3.683-11.687-.619.298-1.717 1.136-3.325 2.486-4.45 1.926-1.606 4.413-2.084 6.856-2.084V.685h-1.063c-3.87 0-7.702 1.333-10.56 3.978Zm2.168 12.355a4.222 4.222 0 0 0-.04.078c0 1.427-.096 2.9.237 4.301.42 1.77 1.641 2.945 3.507 2.945 2.411 0 3.546-2.539 3.546-4.628 0-2.28-1.241-4.628-3.783-4.628-1.42 0-2.782.66-3.467 1.932Zm3.704 6.639c2.015 0 2.84-2.272 2.84-3.943 0-1.907-.944-3.942-3.077-3.942-1.139 0-2.217.478-2.8 1.49 0 1.322-.09 2.685.218 3.981.346 1.457 1.275 2.414 2.819 2.414Z" clip-rule="evenodd"/></svg>