<svg xmlns="http://www.w3.org/2000/svg" fill="none" viewBox="0 0 45 30"><path fill="#fff" fill-rule="evenodd" d="M22.726 23.274v6.343H1.156v-5.166l9.467-9.597c1.618-1.789 2.537-3.143 2.932-4.175l.005-.012c.744-1.832.186-4.324-2.154-4.324-1.933 0-2.72 2.064-2.72 3.694v.686H.562c0-4.045 1.668-7.388 5.277-9.352C7.508.45 9.424 0 11.565 0c2.197 0 4.09.328 5.65 1.019 3.137 1.387 4.778 4.37 4.778 7.737 0 2.114-.788 4.091-1.96 5.825l-.003.004c-2.197 3.202-5.249 5.804-7.841 8.69h10.537Zm-12.093.686h11.383v4.972H1.867v-4.207l9.281-9.41c1.65-1.82 2.627-3.232 3.074-4.398.934-2.3-.015-5.26-2.816-5.26-2.335 0-3.43 2.353-3.43 4.38H1.272c0-3.428 1.929-6.444 4.918-8.07C7.737 1.113 9.529.685 11.565.685c2.128 0 3.913.32 5.354.957 2.89 1.278 4.363 4.017 4.363 7.114 0 1.938-.654 3.69-1.844 5.45-2.449 3.569-5.912 6.533-8.805 9.754Zm19.643 5.57c-3.54-1.05-5.868-3.911-6.768-7.493v-.002c-.333-1.337-.496-2.833-.496-4.482v-5.087c0-2.064.243-3.876.746-5.426l.001-.003c.514-1.554 1.253-2.867 2.23-3.92C27.998.95 30.874.018 33.777.018c2.311 0 4.67.576 6.541 1.978a8.968 8.968 0 0 1 2.296 2.5c1.278 2.003 1.948 4.668 1.948 7.969v5.087c0 2.052-.25 3.865-.767 5.427-.907 2.817-2.847 5.188-5.65 6.264-1.323.507-2.768.756-4.328.756-1.251 0-2.43-.154-3.533-.468l-.008-.002Zm12.841-6.756c.49-1.479.734-3.22.734-5.22v-5.088c0-3.228-.66-5.759-1.844-7.611a8.278 8.278 0 0 0-2.122-2.315C38.139 1.231 35.932.705 33.777.705c-2.703 0-5.386.85-7.258 2.868-.9.97-1.593 2.193-2.082 3.672-.476 1.466-.714 3.207-.714 5.221v5.087c0 1.607.158 3.047.476 4.322.827 3.291 2.989 6.021 6.286 7 1.031.293 2.142.44 3.332.44 1.48 0 2.835-.236 4.065-.708 2.609-1 4.393-3.215 5.235-5.833Zm-7.2-14.883-.003-.007-.003-.008c-.16-.397-.348-.684-.546-.884l-.006-.006c-.409-.432-.996-.624-1.582-.624-.795 0-1.444.316-1.873.992-.774 1.223-.788 2.897-.788 4.29v6.693c0 1.279.056 2.615.525 3.82.416.955 1.137 1.5 2.176 1.5 1.531 0 2.161-1.265 2.414-2.594l.002-.009c.147-.72.224-1.622.224-2.717v-6.693c0-1.2-.051-2.622-.54-3.753Zm-4.936 14.52c-.505-1.287-.575-2.707-.575-4.074v-6.693c0-2.222.311-3.731.892-4.648.593-.935 1.44-1.32 2.479-1.32 1.303 0 2.315.757 2.796 1.952.397.919.595 2.233.595 4.016v6.693c0 1.122-.08 2.072-.238 2.85-.319 1.678-1.252 3.155-3.113 3.155-1.342 0-2.31-.714-2.836-1.931Z" clip-rule="evenodd"/></svg>