<svg xmlns="http://www.w3.org/2000/svg" fill="none" viewBox="0 0 22 30"><path fill="#fff" fill-rule="evenodd" d="M6.797 11.628h3.891c1.81 0 2.886-1.03 2.886-2.853 0-1.543-1.155-2.432-2.652-2.432-1.095 0-2.515.667-2.515 1.916v.685H.428V8.26c0-3.43 2.195-6.017 5.276-7.287C7.262.322 8.932 0 10.708 0c2.082 0 3.94.316 5.56.968 3.258 1.287 5.265 4.162 5.265 7.673 0 2.452-1.497 4.61-3.5 5.912A7.346 7.346 0 0 1 22 21.11c0 2.635-1.184 5.054-3.32 6.613C16.381 29.4 13.508 30 10.708 30c-2.516 0-5.062-.624-7.17-2.031l-.005-.004C1.21 26.384 0 23.988 0 21.187V20.5h7.978v.686c0 1.531 1.545 2.47 2.944 2.47 1.614 0 3.1-.933 3.1-2.68 0-2.179-1.211-3.178-3.334-3.178H6.797v-6.171Zm.698 5.485h3.193c2.476 0 4.032 1.33 4.032 3.863 0 2.13-1.807 3.366-3.798 3.366-1.778 0-3.642-1.24-3.642-3.155H.698c0 2.49 1.156 4.801 3.233 6.215 1.988 1.328 4.402 1.913 6.777 1.913 2.645 0 5.385-.558 7.556-2.142 1.961-1.432 3.038-3.644 3.038-6.063 0-3.098-1.997-5.496-4.828-6.483 2.354-1.089 4.36-3.26 4.36-5.986 0-3.233-1.828-5.854-4.829-7.038-1.52-.612-3.285-.918-5.297-.918-1.688 0-3.265.306-4.732.918-2.535 1.045-4.578 3.156-4.82 5.97a7.98 7.98 0 0 0-.03.686H7.71c0-1.655 1.72-2.601 3.213-2.601 1.856 0 3.35 1.186 3.35 3.117 0 2.2-1.4 3.538-3.584 3.538H7.495v4.8Z" clip-rule="evenodd"/></svg>